<svg xmlns="http://www.w3.org/2000/svg" width="799" height="571" fill="none"><path stroke="gray" stroke-miterlimit="10" d="M510.714 213.805c.559-.08.616-2.946.297-2.98-1.142-.103-1.576 3.174-.297 2.98ZM389.456 255.363c.936-.343 6.978.925 6.978-.994 0-1.233-6.213-2.855-6.978-2.284.06.821.403 1.596.971 2.193 0 .605-2.616-.069-2.844.571a1.38 1.38 0 0 0 1.873.514Z"/><path stroke="gray" stroke-miterlimit="10" d="M444.261 293.14c-2.536.137-4.979-3.118-7.755-3.506-2.466-.343-2.615-.605-4.785.285 2.422-.993-3.905-3.917-3.939-3.928-1.062-.285-2.147 2.592-3.107 2.181.195.08 1.142-2.284.172-3.175-.971-.89-2.695 1.257-2.787 1.2.16.091 2.707-6.373-.4-8.063-2.992-1.964-5.447-1.599-8.165-2.958-2.535-1.279-2.763-4.419-6.327-4.191 1.451-.091-2.809-3.803-1.633-3.334-1.895-.754-5.561.845-7.994.296-.97-.205-1.598-2.695-3.003-2.695-2.147 0-1.565 3.849-1.907 4.568-.994 2.182-1.393-5.71-.388-5.07-.72-.457-5.71 3.015-6.27 3.426-1.142.845-1.576 2.489-2.741 2.832 1.964-.582-6.281-1.496-4.568-.845-5.219-1.987-2.832-2.661-4.248-7.263-.411-1.302.948-1.919-.16-3.106-1.108-1.188-5.504-1.371-6.852-.503-.959.525.126-3.609.548-4.043 1.702-1.724 2.284-5.71-.388-5.801-4.374-.114-2.216 3.757-4.933 5.105-8.177 4.065-8.543-7.435-8.28-12.265.445-8.508 6.578-6.201 11.694-5.608-1.347-.159-.205-2.192 1.348-2.284 1.448.054 2.876.367 4.214.925 2.581.766 1.93.001 3.848 3.255.754 1.302 1.051 4.568 2.741 5.105.148 0-.091-11.9.879-13.327 1.222-1.805 4.146-4.043 5.071-5.231 2.112-2.706.08.343.342-2.797 0-.332-.845-4.808.594-4.808-.559 0 .491 4.202.434 4.237 1.439-.994.503-2.456.571-3.586 0-.903 4.66-2.444 5.036-3.266.16-.343-2.226 0-2.226-.069 0-1.211 3.745-1.005 4.293-1.382a11.171 11.171 0 0 1 1.588-4.362c1.69-1.748 5.904-1.359 7.206-4.032-.16.332.559 1.656 1.462 1.394-3.324.97-4.911 2.741-.925 2.147 2.032-.309 5.116-2.284 6.635-3.426.091-.069-.697-1.051-.583-1.736-.068.434-2.512 2.364-3.083 2.284-3.883-.708-2.033-3.312-3.54-4.317a2.533 2.533 0 0 1-1.291.24c-.411-1.393 4.694-2.444-.217-3.083-3.426-.446-5.082 4.488-7.411 4.488 1.142 0 6.292-6.259 8.724-6.852.971-.32 14.675-1.314 13.533-4.34a9.496 9.496 0 0 0-.971-.491c-.947-.879 2.479-1.747-1.324-2.193a4.691 4.691 0 0 1-.103-1.267c-.366-.252-4.203 1.336-4.203 1.324-.297-1.393 3.552-1.553 3.986-2.284 0 .057-8.234-3.94-7.492-4.922 1.519-1.964 1.508.229.526-2.82-.274-.834-3.94-5.973-3.678-6.213-1.781 1.61-.776 5.276-3.882 5.288-3.426 0-3.095-3.929-3.095-6.179 0-.993-8.508-3.528-9.136-3.506-4.808.126-2.832.434-3.129 4.249-.057.651-.765 3.357-.697 3.745.571 2.958 3.015 3.906 1.519 7.698-.457 1.142-3.186 1.473-3.426 2.146-.263.903 1.062 1.816.857 2.89-.08.434.445 4.511.171 4.385-1.816-.856-1.017.834-3.049-.982-2.284-2.044-.697-5.002-2.033-6.555-.525-.628-7.16-3.141-8.634-3.814a9.197 9.197 0 0 0-6.395-1.005c.583-.092-.548-3.426-.799-3.803-1.439-2.444-2.992.274-2.124-4.568.217-1.211 5.63-7.024 5.71-6.852 0-.24-4.431-1.896-4.397-1.976.617-1.473 4.374 2.627 5.402-.468-.469 1.427 5.949-1.393 4.351-2.547-.674-.479-4.443 0-4.214-1.77-.149 1.142 8.074 1.599 4.808-1.313-.115-.103 2.992 0 3.62 0 .434 0-1.142-1.508-1.04-1.656.469-.468 2.113 2.284 4.272-.114 1.667-1.862-.868-2.056-.971-3.86 0-.206 2.569-.902 1.713-2.193-.651-.982-4.066-2.158-5.196-1.793-.788.251.285 4.089-1.85 5.333a2.712 2.712 0 0 1-.64-.993c-.902.057.811 3.334-.342 2.798-1.154-.537-1.257-2.867-1.439-3.027-.457-.399-1.062-1.873-1.828-2.558-.765-.685-1.496 2.547-1.792 2.604-1.142.206.148-2.798.228-2.935.525-.982-2.775-.662-2.718-.605-1.051-.914.719-1.416.902-1.702-.228.366-2.535-3.757-2.535-3.734-1.519-3.426-.491 0-.879-3.894.182 1.815 7.057-3.027 4.67-3.815-2.386-.788-5.892-1.05-6.429.88-.297 1.142-.126 5.481-.571 7.229-.149.559-2.021 1.461-1.371 3.688.263.868 5.265 1.999 2.913 3.906a.924.924 0 0 1 .97-.857c.069.149-2.558 4.957-2.284 4.751a35.809 35.809 0 0 1-3.015-3.083c-.137-.252 3.346-.788 3.529-.96 1.348-1.313-1.975-1.29-1.975-1.484 0-.377 1.781-.149 1.142-.64a3.95 3.95 0 0 0-3.019-.733 3.93 3.93 0 0 0-2.612 1.681c-.616.822 4.9 2.924-1.735 3.78-3.027.388-4.26-1.142-6.852-1.747-.766-.183-.731-.982-2.113-1.142-.48 0-3.769 1.393-2.764 1.85.731.32 3.426-1.53 3.872-1.062-1.782-1.953-2.113 5.504-3.266 4.899-.514-.274-.195-2.067-1.759-2.581-2.147-.719-7.012 1.496-8.611-.262-.776-.846 2.044-1.051 1.827-1.554-.788-1.827-5.264-1.952-6.852-2.341-1.587-.388-2.798-1.29-4.248-1.45-1.747-.183-2.409 1.062-4.031 1.062-.24 0 .331-2.17-.423-2.284a8.894 8.894 0 0 1-1.964 2.284c-1.553-.114-1.347-3.928-3.198-3.643 1.257-.194-2.638 2.764-2.375 2.615a51.73 51.73 0 0 1-5.127 2.867c-.971-.057 5.47-4.009 5.458-3.86.069-.777-5.573 1.61-6.201 1.953-.628.342 0-.994-1.142-.606-2.695.971-.776 1.805-1.427 2.513.262-.274-16.662-3.986-17.781-4.077-1.656-.137-11.946-1.302-12.562-2.01-1.142-1.234-4.077.08-5.425 1.553-1.085 1.142-9.136 2.958-9.49 4.705-.822 3.666 7.732 4.351 8.383 6.349 0 .16-9.628-.365-10.69 2.17.366-.868 2.696 2.775 2.935 2.867 1.142.411 6.989-.845 7.012-.811 1.645 1.633-1.93 3.848-2.809 4.671-1.062.982-1.142-.606-2.421 1.062a20.731 20.731 0 0 1-2.41 1.953c.274-.252 1.942 3.483 1.999 3.528 1.016.891 4.134.88 3.768.514.982.982-.091 3.038.823 3.518.616.331 2.752.068 3.928.548-1.051-.423 3.232-1.862 2.981-1.142-.583 1.758-7.606 10.278-8.634 9.136 1.234 1.359 13.898-7.195 13.898-9.216a3.416 3.416 0 0 0-1.142-.64c-.285-.719 6.852-6.658 6.601-4.351 0-.24-4.26 3.255-3.277 4.157.296.263 5.013-1.37 5.71-1.644.696-.274-1.713-2.41 0-2.718.582-.103 2.832 1.222 2.923 1.142a.776.776 0 0 0-.645.086.786.786 0 0 0-.36.542c.217.685 10.073.251 10.689.799-.297-.262 6.327 5.459 6.258 3.86a2.685 2.685 0 0 1-.205-1.827c3.152 2.284-1.473 2.923-1.462 2.786 0 .16 2.398 3.541 2.284 3.575.445-.24-.617-3.061.103-2.798.162.358.228.751.194 1.142.799 1.028.936-2.284.834-2.056.171-.445.251 4.363-.252 4.294-.73-.102 4.192-.422 2.741.286.457-.229-1.793-1.565-.548-1.668 1.919-.159.411 1.622-.868 1.736-.009.938.068 1.874.229 2.798.388.286 2.146-1.37 3.037-1.21.891.16.731 3.426 1.222 4.111.354.491 2.821 2.969 3.141 3.426a26.188 26.188 0 0 0 5.184 4.18c-.171-.137 6.487 5.481 2.821 5.481-.137 0-3.974-10.335-8.234-7.331.891-.629 5.71 6.303 6.041 7.194 1.782 5.116-1.142 11.066.846 16.651 1.359 3.825 4.944 6.246 7.365 8.873a33.239 33.239 0 0 1 3.849 5.824c1.702 2.878 2.078 3.609 1.736 5.253 0 .08 7.674 8.108 7.377 8.325.731-.525-7.606-15.576-7.366-15.611 3.015-.308 3.278 4.408 3.837 5.276 1.542 2.387 4.351 4.568 6.042 6.784 2.889 3.711 3.277 7.606 5.858 10.278 1.713 1.77 5.71 3.312 7.994 4.031 3.015.959 6.201.057 8.634 2.433 1.142 1.062 2.866 1.142 3.643 1.884 2.135 1.964 3.014.982 5.013 3.038 1.347 1.381 1.736 2.649 2.512 3.426 1.279 1.256 3.426 3.643 5.356 3.78 1.93.137 1.314-2.125 2.284-1.896 4.294 1.016 3.518 6.772 1.782 10.278-1.873 3.826-4.271 4.488-2.159 8.348.149.274-2.089 3.906-1.872 5.036.411 2.147 5.207 8.508 6.326 10.735 2.147 4.225 4.888 4.659 7.926 8.108 2.775 3.152 1.895 5.71 1.416 10.004-.697 6.292-.88 12.482-2.216 18.58-.536 2.433-5.15 15.098-3.426 17.53.788 1.142 1.142-3.186 1.873-3.426.731-.24-.468 9.444-1.233 8.908-.4-.286.445-3.141-.605-2.673.959-.422-1.965 4.032-1.976 4.077.114-1.256 1.496 1.531 1.553 1.976.091.777 1.69-.514 1.61.617.114-1.691-4.796 1.941-2.478 1.587a5.138 5.138 0 0 0 1.051-.811c.342-.068-2.421 2.889-.571 3.186.365.057.559-1.895 1.073-1.381 1.085 1.084-2.067 3.426-1.324 4.316.148.183 1.69-.696 1.987-.08.091.195-1.04 1.074-.857 1.142.617.229 2.021-.605 2.284.286.263.891-2.741.068-1.713 1.53.388.548 2.832-1.77 3.289-.251-.126-.434-2.741 1.37-2.832 1.485a28.392 28.392 0 0 1 3.22-.743c.229.503-3.574 1.976-3.677 1.542.114.491 2.284 1.85 2.65 1.507.593-.605-.788-.308-.297-.947.342-.457 3.266-2.079 3.426-2.513a1.68 1.68 0 0 0-.811 1.508c.437.079.882.102 1.325.068-.366-.411-.88 1.919-.743 1.85a1.843 1.843 0 0 1-.605-1.313c-.651-.286-.32 1.37-.411 1.302a.88.88 0 0 0-1.062-.594c.537-.754-.663 2.284-.663 1.245 0-.583 1.85 1.701 1.805 1.656.25-.374.425-.793.514-1.234.984.764 2.01 1.473 3.072 2.124.571.172-.411-1.336-.08-1.29a19.162 19.162 0 0 0 4.431-.914c-2.056-.753-4.568-4.408-4.957-4.568-.308-.08-1.473.172-1.301-.616.171-.788 1.267.274 1.553 0 .285-.275-1.291-2.707-.96-3.426.514-1.142 1.416-1.462 1.999-2.524.776-1.416 2.695-2.501 2.809-4.077.103-1.245-1.793-1.268-1.701-1.622.354-1.37 1.233-4.728 2.649-6.509.537-.685 2.364-2.478 2.353-2.49-.446-.377-3.94-.068-2.102-2.843-.582.868 4.169-.754 3.929-.617.651-.377-.092-2.57.24-2.924 1.621-1.724 7.594.777 8.268-3.825.148-1.017-2.65-4.568-2.707-4.5.948-.993 5.368 1.142 7.8-1.439.605-.639 3.632-5.995 3.62-5.835-.294.783-.678 1.53-1.142 2.227 0-1.062 3.552-3.997 4.009-5.231.662-1.758-.137-4.054.776-5.71 1.839-3.22 5.961-2.604 8.245-4.042 2.935-1.862 3.78-4.568 4.683-7.994.559-2.125 0-7.538 1.142-9.239-.16.342 11.442-12.425 4.191-12.014Z"/><path stroke="gray" stroke-miterlimit="10" d="M387.88 251.891c1.679-2.284-17.301-6.372-14.926-2.912-1.142-1.656 7.572.559 7.994.788 1.416.811 4.865 4.899 6.932 2.124ZM381.828 255.009c.263.491 2.718 1.142 2.969.571.252-.571-3.289-1.188-2.969-.571ZM398.443 255.146c.571.993 2.284.399 2.387 0 .263-.708-2.969-.982-2.387 0ZM407.682 377.408c.777.423 2.387-1.702 1.679-1.839s-2.421 1.439-1.679 1.839ZM409.578 377.557c.514.274 2.638-.697 2.387-1.211-.468-1.062-2.866.925-2.387 1.211ZM362.824 284.701c-.65 1.062.64 2.101.903 1.633.262-.469-.252-2.696-.903-1.633ZM420.85 149.259c.137-2.558-3.78-1.313-4.363-1.142-.582.172 4.18 4.271 4.363 1.142Z"/><path stroke="gray" stroke-miterlimit="10" d="M464.748 147.512c-.468.286-6.235-.617-6.269-.514.148-.388 2.09-2.615 1.838-2.706 1.268.479 4.911 4.808 5.082.799.137-2.341-3.289-2.341-3.791-4.282-.149-.537 4.454 1.484 3.529-1.371-.514-1.621-5.037 1.142-4.854-.594-.069.606 1.565-2.124 1.279-1.815 1.439-1.588 7.994 3.882 3.757-1.611-.171-.217 3.803-.148 3.997-.959.194-.811-3.951-.697-3.015-2.284 1.142-1.941 4.146.879 2.284-3.095.069.137-4.785-1.519-4.042-2.284.742-.765 6.441 0 6.224-.879-.549-2.079-3.369.114-3.598-1.667-.125-.925 1.713 0 1.987-.48 1.028-1.622-4.453-.308-4.259-.16-1.485-1.142 6.075-8.188 6.292-7.891-1.382-1.85-2.649 1.233-3.631.263-.983-.971 5.47-1.782 5.641-1.896.548-.343-3.426-1.142-3.62-.88.697-1.142 10.004-1.039 10.004-3.608 0-3.426-8.828-.137-9.81.182-.777.24-1.896-.765-2.432-.559-1.771.674-3.426 3.551-5.299 3.826 1.861-.275 3.974-4.774.936-5.311-.48-.08-5.619 3.712-5.938 2.57-.252-.902 3.095-1.325 3.015-2.079-.16-1.598-10.918.903-10.941.663-.16-2.182 14.983-1.302 16.502-3.358.845-1.142-19.254-4.385-21.07-3.917-.457.114-3.186 1.085-3.494 1.142a13.967 13.967 0 0 0-1.896-.103c-3.426.389-6.749.16-10.164.811-.422.08 1.485 1.359 1.462 1.473-.023.115-2.992.309-2.581.845-.091-.114 4.203 3.05 3.906 3.118-2.41.514-6.852-4.99-9.251-3.209-.593.434 1.771 1.884 1.771 2.216 0 1.324-4.842-1.508-4.705-1.508-.354 0-.217 2.889-.903 3.323 2.09-1.302-2.581-3.14-3.311-3.209a3.905 3.905 0 0 0-3.849 2.216c-1.085.377-2.684-.937-4.088-.366-1.005.411.89 2.102-.503 2.867-.377.205-10.141.445-8.839 3.426.982 2.284 6.258-.103 1.576 3.723-1.279 1.039-4.979.616-6.589 1.713-7.48 5.104 6.92 1.736 6.772 4.568 0 .319-7.64.331-7.492 1.039.194 1.039 5.345 3.426 6.715 3.552 2.775.262 5.436-1.816 9.136 0 3.243 1.564 6.521 4.773 7.492 8.393 1.142 4.237-1.553 4.774 2.889 4.774a25.163 25.163 0 0 0 3.791 4.077c-.159.125-4.956-1.896-4.956-.674 0 2.855 6.692.765 4.911 5.858-.274.754-2.387-.319-3.015 1.222a7.635 7.635 0 0 0-.754 3.266c-.103 2.056 2.981 9.136 5.253 12.288 1.828 2.501 2.912 2.89 5.493 4.054 4.043 1.816 3.107 2.045 5.391-1.336.879-1.324-.48-2.603-.126-3.631.183-.537 1.93-.526 2.193-1.679.331-1.485.125-3.94.319-4.568a2.97 2.97 0 0 1 1.439.194c.194-.114 2.707-3.494 3.004-3.494a1.064 1.064 0 0 1 .194 1.359c.491 1.541 6.258-3.598 6.372-3.689 2.204-1.599 1.885-1.702 3.849-2.569 4.351-1.862 9.25-3.495 12.79-5.585ZM317.51 129.845c1.256-.685 1.256 0 2.204-.993.267.482.615.914 1.028 1.279 1.496 0 2.101-3.221 3.037-3.426.937-.206.286 2.855 2.444.765.823-.788.64-1.519 1.439-2.398.217-.24-4.568-.08-5.207.137-1.816.639-5.014 4.682-4.945 4.636ZM327.08 128.566c-2.159.172 1.142 1.576 1.073 1.234a4.774 4.774 0 0 0-2.501.731c-.388.548 2.159.342 1.885.445a4.76 4.76 0 0 0-2.593.925c1.382 2.021 3.735.103 4.831-.582-.571.354 3.357 1.324 3.62.925-.377.559-4.065 1.073-4.008 1.667.205 1.918 7.366-.628 8.428-1.142 3.551-1.553 4.568-.297 2.923-3.426.149.251-3.837-2.501-4.465-2.17-1.85.959 1.142 2.878.697 3.552-1.062 1.747-4.648-1.965-5.493-2.181-2.182-.457-2.593-.115-4.397.022ZM351.256 143.801c2.615 1.964 5.71-5.379 4.02-5.471a1.236 1.236 0 0 0-.308 1.542c.182-.388-2.147-1.142-2.102-1.142-.502-.788 3.324-1.507.845-3.186-1.838-1.256-1.621 1.073-1.587 1.062.32-.16-5.504-.674-3.654.994.624.173 1.262.295 1.907.365 2.192 1.907-3.814.879-3.198.765-1.747.366 3.54 4.671 4.077 5.071ZM314.609 142.533a29.43 29.43 0 0 1 2.067 2.501c1.576 0 3.232-2.284 4.009-2.878 2.032-1.519 4.922-3.003 6.977-4.705.765-.628-9.376-3.54-10.7-3.129-4.248 1.336-.548.423-1.93 2.764-.434.719-2.718 4.488-2.433 4.842a5.345 5.345 0 0 0 2.01.605ZM322.364 130.907c1.142.137 2.284-.993 2.284-1.633 0-.639-2.867 1.565-2.284 1.633ZM390.941 145.034a1.225 1.225 0 0 0 .888-.377 1.239 1.239 0 0 0 .345-.902c.274.936-4.876-1.759-5.345-1.919-1.142-.388-.422-1.439-2.284-1.861-1.267-.286-3.209 1.599-3.151 1.61-1.713-.605-.994.126-2.935.126-1.428 0 .982-7.823-5.219-4.077-3.746 2.284-.64 3.426-.469 5.847 0 .4-2.797-.834-2.683-2.65.103-1.644 2.158-3.117 2.158-4.156 0-1.919-6.749 2.284-7.08 3.814-.446 2.01 2.455 6.03 3.643 4.454-.309.399-3.164-.377-3.084.376.411 4.123 15.269 1.554 15.589 2.387a1.698 1.698 0 0 1-.754-1.142c.205-.685 5.23 3.118 5.264 3.426a4.14 4.14 0 0 0-1.427 1.348c.959.799 2.021-.811 3.62.845 1.804 1.873 1.77 1.485 2.204 4.328.092.594 5.459-1.142 4.488 1.336-.97 2.478-2.398-.639-3.106-.411-.708.229-2.547.297-3.529.594a4.73 4.73 0 0 0 .594 1.804c-1.519.743-3.986.08-5.15 1.142-4.283 3.666 4.568 1.439 5.79 1.828 1.222.388 8.622 9.432 10.54 6.852.48-.663-3.254-4.706-3.951-4.568 2.832-.823 6.989 3.859 5.504-.88-.662-2.113-5.71-3.746-3.494-6.384.913-1.142 4.728 3.575 5.367 3.552 0 0 3.746-3.928 3.746-3.906 0-2.626-10.347-4.042-10.015-6.589a5.526 5.526 0 0 1 1.998-.491 3.31 3.31 0 0 0-1.679-.925c-.171-1.565 1.656-1.485-.97-1.485 1.907 0-2.638-2.067-2.81-2.135-.536-.171-2.603-.811-2.603-.811ZM302.082 188.316c-1.2.696 1.496 3.997 2.215 3.506.217-.16-.457-4.534-2.215-3.506ZM344.987 132.324c.445-.571-.971-1.771-1.359-.777-.389.994.856 1.359 1.359.777ZM379.886 170.318c.457-.08 1.359-1.85.194-1.782-1.165.069-.891 1.885-.194 1.782Z"/><path stroke="gray" stroke-miterlimit="10" d="M386.35 155.221c3.528-.651-3.426-3.198-2.284-2.216.765.628-1.965 2.992 2.284 2.216ZM374.176 168.753c1.039.708 2.581-1.199 2.455-1.77-.125-.571-3.677.891-2.455 1.77ZM361.786 132.472c.593 1.827 15.359 2.581 17.072 1.336 6.852-4.945-14.469-2.467-14.183-4.077.328-.43.712-.814 1.142-1.142.525-.696-11.592-3.14-10.666-1.701 2.546 3.882 4.933.217 6.635 5.584ZM346.928 148.346c.343-.446 1.998.913 2.067-.069 0-.696-4.922-4.202-5.356-5.321a26.474 26.474 0 0 1-.331-4.568c.582-.526.525-1.142-.194-1.656a2.67 2.67 0 0 0-2.844.708 8.796 8.796 0 0 1 1.804 1.701c0-.331-3.231-1.496-3.551-.856-.457.913 1.473 4.225.856 4.568-.114 0-4.362-4.774-4.568-3.689.452.384.837.839 1.142 1.348 0 .171-2.352.068-2.227.399-1.701-4.499-3.106.891-4.648-.559-.159-.16 2.65-2.284-.662-2.284-1.279 0-4.568 1.838-4.99 2.912-1.919 4.568 2.386 1.21 4.191 2.604.091.068-3.815 1.085-3.815 1.621 0 2.398 9.239-.24 9.239 1.782 0 .491-8.325 0-7.994 1.347.857 3.723 11.42 2.981 13.567 2.684a16.298 16.298 0 0 1 3.426-.468c.72 0 6.635 2.033 5.927-.377-.571-1.884-1.93.571-2.398-.708a5.213 5.213 0 0 1 1.359-1.119ZM402.51 197.109c.125.56 3.882 2.284 4.008 1.485.126-.8-4.123-1.976-4.008-1.485ZM365.041 124.101c-1.142-.639-2.627.708-1.417 1.211 1.074.422 2.627-.571 1.417-1.211ZM355.002 123.188c7.606 0-1.37-4.237-1.873-3.426-.502.81.982 3.426 1.873 3.426ZM355.778 116.164c.069 0 5.996 2.775 5.71 1.839.16.48-2.729 1.142-2.581 1.347 1.896 2.09 4.877 3.426 7.56 2.696.183 0 5.585-4.865 5.425-4.043-.217 1.142-3.986-3.814-4.191-3.974-.206-.16-8.211-4.363-8.988-3.769.06.218.182.414.353.563.171.148.382.242.607.271 0 .445-1.965.091-2.147.457.365.289.719.586 1.062.89-.389.754-2.65-.365-2.57 1.142a4.846 4.846 0 0 0 1.77 1.336c.046.8-4.282 0-2.01 1.245ZM378.276 136.789c-1.633 3.86 6.589 2.969 6.589 2.124 0-1.291-6.121-3.221-6.589-2.124ZM360.244 123.542c-.137-.434-5.036.217-4.271.845 1.29 1.062 4.396-.423 4.271-.845ZM330.437 123.462c.331-.845-2.135-.708-1.93-.423.446.64 1.611 1.279 1.93.423ZM358.816 131.193c-1.039-.857-4.111 1.199-3.688 1.553 1.678 1.428 7.491 1.576 3.688-1.553ZM343.89 125.517c.514-.708-2.078-2.969-2.204-1.907-.126 1.062 1.656 2.661 2.204 1.907ZM349.577 126.762c-1.541-.651.651 2.284.412 2.284a5.71 5.71 0 0 0-2.456-1.142c-.548.445.8 1.793.354 2.01-.696.331-2.398-2.935-3.357-2.992-2.056-.114.731 2.923.822 2.98 1.725 1.04 3.083.24 4.808.709-.24-.069 1.907 5.47 3.928.571 1.474-3.621-2.752-3.712-4.511-4.42ZM335.805 123.108c1.142-.183-4.568-1.542-4.568.639-.023 3.7 4.579-.639 4.568-.639ZM332.642 121.76c.525.24 4.203.194 4.203-.56 0-2.752-6.099.297-5.95.423a6.367 6.367 0 0 0 1.747.137ZM352.284 116.233c.457-.845-2.718-1.519-1.93-.777.446.423 1.485 1.633 1.93.777ZM343.434 119.567c1.039-.342 1.69 0 1.941.994-.126.308-2.398.217-2.284.422.114.206 12.436 5.06 6.144-1.142a6.546 6.546 0 0 0-2.981-1.61c-5.561-.685-2.364 1.005-2.82 1.336ZM378.858 164.859c.126-.742-6.315-5.15-6.658-5.105-.616.08-3.62 4.112-3.231 5.391.388 1.279 9.946-.628 9.889-.286Z"/><path stroke="gray" stroke-miterlimit="10" d="M363.601 109.152c2.284-1.644.4.686.423.72.463.02.923.093 1.37.217-2.581 3.026 4.819 2.535 4.785 1.964.331 4.705 9.433-1.576 10.529-.799 2.102 1.496-5.527 2.969-5.344 3.22 0 0 2.455 2.079 2.147 2.09-1.45.114-9.033-5.276-7.754-.48.297 1.142 6.258 3.426 6.258 4.477 0 0-7.514-2.284-7.697.993-.114 2.033 4.145-.365 4.191-.239-.662-1.474.662 4.568.662 3.426 0 1.37-5.824-3.563-5.584-.845.532.489 1.105.932 1.713 1.324 0 .469-5.002.88-3.826 2.067 1.348 1.382 16.548 1.805 17.313 0 .765-1.804-5.71-1.347-5.996-1.827.903 1.416 5.71-2.569 6.087-2.752 2.421-1.336 3.426.628 4.705-3.152.377-1.142-4.191-1.142-4.145-1.142 2.661-1.884 6.167-1.142 8.588-2.284 1.473-.731 10.198-5.242 10.278-5.904.08-.663-4.089-.171-4.328-.274 2.009.879 9.136-3.86 9.25-3.837-.571-.183-8.839-2.992-8.976-.868.328-.5.791-.896 1.336-1.142-1.622.639-9.742.205-10.838.262-3.723.195-7.32-.491-10.598.411-.662.183-15.896 5.185-16.182 4.568a1.44 1.44 0 0 0 1.633-.194ZM415.288 194.14a7.996 7.996 0 0 0-3.106 3.586c-.16.342-3.003 3.197-1.85 3.883 2.615 1.53 5.025-2.284 5.299 1.142-.091-1.142 3.791.422 3.963.091-.069.148-1.142-2.969-.628-2.741.696.32-5.151-3.723-5.071-3.049a6.382 6.382 0 0 1 1.393-2.912ZM251.651 189.572c.776-.354 1.142-.788.776-1.211-.365-.422-1.37 1.508-.776 1.211ZM257.144 186.397c-.902-.354-1.816 1.085-1.941 1.074-.388-.069 2.809-.72 1.941-1.074ZM272.401 178.529c-1.484 1.873-2.706 5.459.457 2.284.468-.48 1.153-4.306-.457-2.284ZM252.941 173.892c-.605-.365-1.039-.194-1.29.491a2 2 0 0 0 2.033.674c2.192-.799-.754-1.29-.743-1.165ZM502.08 217.163c-.103-.8-1.587.24-1.267.468.651.491 1.381.331 1.267-.468ZM534.901 225.191c0-.525-4.18 0-4.088 0-.537-.046 4.214 1.37 4.088 0ZM545.83 225.785c.329-.475.687-.929 1.074-1.359a13.394 13.394 0 0 0-3.312 1.142c-.571 1.096 2.364.971 2.238.217ZM474.923 163.58c4.568-.251.274-7.229-1.918-5.95-.503.286-3.723 2.079-4.306 1.907a1.142 1.142 0 0 0-1.027-.788c-2.867 3.426.102-.982-3.849-.982-.822 0 .423 1.142.206 1.142-.8-.091-2.01-.331-2.204 1.142-.092.651 3.289.503 3.163.377-.126-.125-.331 1.211-.217 1.142-.091.057-2.707.114-2.478.583.08.159 2.387.239 2.786.708.731.845-.788 1.895-.948 1.724 2.764 3.061 7.835-.834 10.792-1.005ZM483.477 193.443c3.837 0 4.887-2.763 4.511-5.71-.126-1.005 1.93-1.142-.377-2.409a8.985 8.985 0 0 0-3.015.639c-.069 2.056.148.24-2.044 1.439-.069.069-.023 6.041.925 6.041ZM495.228 174.258c.366-.4.8-1.942.24-1.77-.559.171-.388 1.941-.24 1.77ZM487.874 177.969c-.286-.308-1.405 1.428-.971 1.416.434-.011 1.245-1.107.971-1.416Z"/><path stroke="gray" stroke-miterlimit="10" d="M487.508 180.093c1.404-1.233.08 4.74.08 3.975 0-1.074 1.85.525 1.644.559.405-.314.698-.751.834-1.245.651.103-.423 2.558-.411 2.718.125.96 2.466-.605 2.604-.354 1.541 2.684-1.234 3.803-1.142 5.573a2.043 2.043 0 0 0-1.599 1.679c1.18.286 2.384.462 3.597.525.08.434-5.082 1.496-3.814 3.186 0 0 9.273-2.032 9.821-2.592.548-.559-.948-.205-.902-.605.251-1.862 1.713-.994.902-3.026a5.323 5.323 0 0 1-1.804-1.416c-1.04-1.759-2.056-5.539-4.568-5.356 0 0 1.621-2.696 1.45-3.118-.708-1.804-2.044.251-3.049-.959-.343-.4 2.067-2.01 1.359-2.673-.491-.548-4.899 3.038-5.002 3.129ZM513.923 185.929c-.274-.069 3.654-1.062 1.781-2.341-1.599-1.096-1.941 2.307-1.781 2.341ZM524.372 179.294c-.822 0-1.142 1.782-.993 2.078.148.297 1.804-2.147.993-2.078ZM528.94 178.769a4.177 4.177 0 0 0 1.507-1.085c1.051-1.165-3.129 1.176-1.507 1.085ZM530.162 176.69c.171-.354-1.245-.194-.925.126a.605.605 0 0 0 .925-.126ZM523.835 115.205c1.222 1.051 3.609-.16 5.128.788-.058 0-3.05 1.142-3.038 1.142.742 1.918 11.42.936 10.7-2.021-.091-.354-6.966-1.325-6.692-1.417a1.289 1.289 0 0 0-.251 1.554c-.571.422-3.335-1.85-3.951-1.77a4.56 4.56 0 0 0-.937 1.279l-1.142-.857c-1.222-.011 0 1.153.183 1.302ZM514.881 118.083c-2.192-.514 1.142 3.426 1.668 3.688 1.016.583 1.827-1.884 2.558-2.169.731-.286-.309 1.347.399 1.302a5.65 5.65 0 0 1 1.554-.663c.628.982-4.568 2.878-3.872 3.061 1.313.331 2.73-.526 4.089-.194a21.431 21.431 0 0 0-4.009 1.279c-.125 1.279 2.284 1.222 2.878 1.45a.982.982 0 0 1-.708.605c-.331.446 1.816.663 2.158.457a32.95 32.95 0 0 0 2.284-3.426c.263-.331 2.341-5.31 3.632-3.266-.343-.548.525 4.34.057 4.248.548.114 5.482.948 5.287-1.347.103 1.142-5.104-3.803-5.013-3.735-1.622-1.324-4.043-1.541-5.196-1.827.674.16-1.074-2.17-1.907-2.444-1.211-.4.274 4.306.354 3.929 1.142-4.842-3.369-1.04-3.335-1.051a8.35 8.35 0 0 0-1.347-1.142c.383-.221.794-.39 1.222-.502-.377.148-8.337.456-2.753 1.747ZM513.557 120.949a5.76 5.76 0 0 0 1.028.777c-.479 0-1.005-2.478-1.941-2.193a1.232 1.232 0 0 0 .913 1.416ZM773.02 165.853a2.51 2.51 0 0 0-1.805.605c.286.354 4.477 1.336 4.477.388a4.072 4.072 0 0 0-2.672-.993ZM701.93 210.356c-.217-1.439-3.426 4.728-1.816 3.838-.285.159 1.348-.914 1.302-.674-.274-.4-.559-.8-.856-1.142 0 .342 9.296.262 8.827-3.78.252 2.192-7.777-1.439-6.852-2.067.092-.08-.605 3.597-.605 3.825ZM684.731 230.25c.457.925.891-1.29 1.142-.183 0 .16-.616 3.495.457 3.255.88-.194 2.467-3.369 1.142-3.94-.388-.125-3.905-1.473-2.741.868ZM689.859 229.873c.32-1.404 2.284.263 2.284-1.941 0-1.142-2.284 0-2.398.205-.377.697-.206 3.107.114 1.736Z"/><path stroke="gray" stroke-miterlimit="10" d="M693.045 225.1s-7.103.319-6.555 2.809c.069.32 5.984-.56 6.407-.651-1.325.308 1.267.936 1.576.914 1.005-.08.239-1.462.422-1.576 1.142-.697 4.568.616 5.71-.971.914-1.245 2.992-9.81 1.382-10.735-2.021-1.142-3.026 5.345-3.974 6.669-.765 1.051-4.751 1.337-4.968 3.541ZM656.375 254.438c.301-.61.561-1.24.777-1.885-.171-.651-3.826-.16-3.083 1.245.08.171 2.181 3.026 2.306.64ZM671.496 248.728c.708-.537 2.375-4.146 1.815-4.968-1.872-2.73-3.357 6.19-1.815 4.968ZM670.16 258.594c-.994 3.289 9.627 7.686 7.435 10.21 3.528-4.054-4.055-5.71-4.831-7.56-.777-1.85 2.729-4.5 0-6.087-1.827-1.085-2.558 3.3-2.604 3.437ZM668.31 268.895a9.147 9.147 0 0 0-1.85 2.65c-.183-.354 3.734-2.821 3.015-4.397a2.436 2.436 0 0 0-1.165 1.747ZM670.982 263.414c.125.662.433 2.032 1.381 1.701.948-.331-1.473-2.17-1.381-1.701ZM677.057 269.089c-.342-.468-1.199.4-1.073.754.125.354 1.416-.331 1.073-.754ZM678.485 269.889s-6.281 4.077-5.219 3.974c1.062-.103 1.496-1.587 2.581-.822s.422 3.232 2.501 3.232c-1.553 0 1.656-3.324 1.507-2.741a3.504 3.504 0 0 0-1.37-3.643Z"/><path stroke="gray" stroke-miterlimit="10" d="M673.312 265.823a1.577 1.577 0 0 0 .08 2.182c2.706-.594-.948 2.055 1.142 2.546 1.793.434 1.918-5.413-1.222-4.728ZM716.833 292.991c0 1.873-4.808.709-4.876 1.28-.263 2.717 7.4.091 5.824-1.885-.525-.16-.845.034-.948.605ZM718.775 292.809c1.29-.377-1.005-2.01-1.279-2.079.422.092.856 2.193 1.279 2.079ZM710.495 296.109c1.142.08-3.711-4.043-4.831-4.682-2.512-1.428-7.388-3.643-9.901-3.495-.731 0-1.747 2.284-2.638 2.125-1.793-.332-.765-2.284-2.044-2.776-1.142-.445-1.142-1.667-3.072-1.381-.331.057-2.204 1.53-1.542 1.678.366.08 4.157 2.193 4.18 1.542 0 .297-2.284.286-2.535.32-1.051.194 3.951 2.649 4.271 2.798 2.204 1.073 3.803.845 5.082 3.095 1.279 2.249-1.793 2.124-1.279 3.14.948 1.862 7.914.217 8.656.228 2.033 0 1.999-.068 4.568 1.2-.068 0 6.247 3.152 5.573 2.032-.308-.445-5.756-5.892-4.488-5.824ZM613.802 269.421c-.936.114-.959 5.561.126 5.995 3.026 1.233 2.352-6.292-.126-5.995ZM567.996 304.286c0 .057-2.021 3.529-2.364 3.883-.913.913-3.311 1.473-4.031 2.284-1.987 2.284-.651 3.323-.993 6.703-.252 2.387-3.061 12.025 3.426 8.885 3.711-1.804 2.946-12.414 4.339-15.897.183-.456 1.142 1.028 1.142-.902 0-1.93-1.096-3.277-1.519-4.956ZM574.323 264.818c.48.549 1.428-.091 1.485-.308.057-.217-2.033-.308-1.485.308ZM728.665 300.472c.125.708 1.142 1.142 1.484.89.343-.251-1.621-1.621-1.484-.89ZM724.073 296.109c0 .183.994 1.279 1.222 1.142.229-.137-1.165-1.473-1.222-1.142ZM728.916 298.953c.354-.251-1.999-1.668-2.033-1.211-.034.457 1.679 1.462 2.033 1.211ZM721.344 294.133c-.08.423 1.302 2.673 1.816 2.285.914-.64-1.759-2.707-1.816-2.285ZM730.183 298.884c-.331.777.959 2.124 1.142 2.159.183.034-.845-2.764-1.142-2.159ZM731.314 302.036c0 .171.902 1.028 1.324.708.423-.32-1.439-1.016-1.324-.708ZM685.132 304.297c.319.286 1.929-.068 1.872-.491-.057-.422-2.364.069-1.872.491Z"/><path stroke="gray" stroke-miterlimit="10" d="M719.38 331.557s-.777-4.682-.377-4.5c-2.752-1.29-6.761-7.023-8.748-10.049-1.496-2.284-1.953-4.717-3.152-7.56-.616-1.473-1.895-.366-2.284-1.325-.639-1.405 0-4.34-1.381-5.63-1.051-.982-1.611 7.023-1.622 7.058-1.462 4.156-.594 4.225-4.34 2.9-1.073-.388-4.305-2.044-4.568-3.426-.239-1.199 2.581-3.22 2.204-3.974.286.571-6.783-2.01-6.932-1.941-.182.456 0 .81.549 1.062-1.942-2.284-5.139 5.847-4.18 5.71.457-.057-2.889-.526-1.964 0-2.399-1.394-2.033-2.775-4.9-.72-1.861 1.348-1.199 3.152-2.284 4.351-.285.32-.479-1.633-.925-1.336-1.541 1.039-.342 2.375-1.735 3.517-1.725 1.405-2.593 1.496-4.488 2.444-2.49 1.222-4.26 1.599-6.418 3.632a1.062 1.062 0 0 1-.16-.994c0 .514-.617 2.124-.686 2.981-.068.856.823 4.168.583 4.671a1.711 1.711 0 0 1-.868-.811c.175.367.316.749.422 1.142-.354-.274-.696-.56-1.039-.845-.411 1.028 2.695 6.498 2.992 7.72.149.628.114 6.543-.148 5.995 1.987 4.077 4.865 1.291 8.154.32 2.695-.788 4.431-1.359 7.034-2.341 2.01-.754 6.281-2.284 8.474-1.919 1.348.217 8.085 5.493 6.544 6.19.468-.206 3.243-3.654 3.426-3.495.868.811-1.405 3.004-1.519 3.506-.411 1.976 2.284-1.553 1.553-.982.971-.776.514 2.41.423 2.159-.092-.252 3.186 4.214 3.494 4.465 1.85 1.599 6.452.114 6.407.091.068.355.068.719 0 1.074-.423-.526 1.53.651 1.998 1.142-.948-.902 5.413-2.89 5.231-2.684.97-1.142 1.53-6.155 2.284-7.788.468-1.337 2.386-9.353 2.946-9.81Z"/><path stroke="gray" stroke-miterlimit="10" d="M694.279 345.763c.354.354 1.542.252 1.736-.251.194-.502-2.079-.068-1.736.251ZM708.885 355.619a11.689 11.689 0 0 1-2.49-.788c.434-.126.08 6.692 3.723 4.773 1.839-1.016 2.547-4.442-1.233-3.985ZM740.164 367.518c.229.069.971-.137.548-.708-.422-.571-1.096.549-.548.708ZM754.77 349.589c-.868 1.587-2.763-2.387-2.935-2.375a.833.833 0 0 0 0 .89c.149-.228-2.866-4.328-3.494-4.328-.069 0 2.17 4.431 2.364 4.979.674 1.965-1.542 1.885-1.462 2.958 0-.08 1.61 4.568 1.519 4.465 1.85 3.472 5.79-9.855 4.008-6.589ZM749.506 355.299c-1.816-1.416-12.733 8.337-9.433 10.552 3.3 2.216 10.963-9.319 9.433-10.552ZM756.677 312.908c.354.149 1.519-.274 1.519-.879 0-.606-2.055.708-1.519.879ZM754.679 314.827c.548.571 1.644.525 1.679-.492.034-1.016-2.17-.011-1.679.492ZM567.345 113.732a2.363 2.363 0 0 0-1.37.856c.605 1.325 6.189-1.336 6.212-1.713.091-1.758-4.511.354-4.842.857ZM575.408 114.485c0-.753-2.284.08-1.804.24.479.16 1.804.514 1.804-.24ZM565.279 113.355a5.933 5.933 0 0 1 2.455-.525c.285-.777-4.979 0-4.819.434a1.584 1.584 0 0 0 2.364.091ZM567.483 151.109c1.256 1.268 2.021-.571 2.672-.845.891-.354-4.991-1.507-2.672.845ZM576.744 136.834a53.856 53.856 0 0 0-4.911 5.482c0 .137 2.49 2.216 2.284 2.284-.216-.445-.137-.777.24-.982-.228 0 6.236 5.413 6.521 2.284.08-.834-2.843-2.627-2.969-3.792-.126-1.164 1.142-2.363 1.633-3.426a17.8 17.8 0 0 1 2.935-3.871c1.918-1.77 15.828-7.606 15.211-8.131-1.484-1.268-13.886 2.787-15.896 4.043-1.085.753-5.014 6.109-5.048 6.109ZM712.78 133.865a3.907 3.907 0 0 0 3.494-.765c.297-3.255-14.058 0-3.494.765ZM701.747 135.51c0-.708-2.284.262-1.37.616.514.195 1.37.092 1.37-.616ZM640.604 122.856c.868.537 8.611-.753 8.874-2.284.263-1.53-4.488-1.964-4.34-.776-.856-6.738-3.414 3.757-4.534 3.06ZM633.924 116.187a4.094 4.094 0 0 0-.993 1.416c2.169 2.079 7.457 3.677 7.914 0 .388-3.118-6.921-2.261-6.921-1.416ZM631.64 114.862c1.405.651-1.233.72-1.393.811-.754.377 2.798.171 3.426-.091.628-.263 5.345-1.645 4.477-2.707-3.483-4.385-7.184 1.679-6.51 1.987ZM659.219 134.665c-.993 2.181 1.748.651 1.77.285a1.149 1.149 0 0 0-.815-.572 1.142 1.142 0 0 0-.955.287ZM576.401 112.738c.697.777 4.9.857 5.082-.514.057-.468-3.494-1.142-3.711-1.062.605-.091-.994 1.987-1.371 1.576ZM630.521 111.516c.171-.708-2.684-.399-1.942.274.263.24 1.771.434 1.942-.274ZM759.407 145.719c.194.149 3.997-.114 3.243-1.005-1.781-2.135-5.596.902-5.31 1.051.685-.034 1.37-.046 2.067-.046ZM696.22 132.586a6.85 6.85 0 0 0 4.705.948c1.142-.217 4.123-1.976 2.992-2.375.537.194 2.113 3.791 3.038 1.005.777-2.284-1.416-1.759-3.426-2.41-.171-.057-3.711-.148-3.734-.148.537-.103-6.921 1.164-3.575 2.98ZM705.196 138.627c2.284-.548-5.915-3.289-4.305-.753.514.822 3.54.948 4.305.753Z"/><path stroke="gray" stroke-miterlimit="10" d="m770.564 160.577 1.633.376c.423 0-.536-.559-.411-.639-.491.308 2.89-.857 2.113-1.142.057 0-6.624-3.974-6.715-2.592.103-1.542.674 2.489.445 1.747-1.233-4.077-9.57-8.542-14.24-9.547-2.593-.56-7.012-.468-8.588.262.125-.068 1.062 1.999-.217 2.787-.594.365-3.426-2.124-2.764-2.433.663-.308 1.496 1.085 1.668-.239.125-1.074-5.471.434-6.281.548a30.733 30.733 0 0 1-4.066-.309c-1.77-.171-.822 1.394-1.553 1.748.628-.297-2.284-2.81-2.284-2.787-2.547-2.158-2.181-2.558-6.921-2.923-1.45-.115-8.542 0-9.261-2.159-.206-.639 2.158.126 1.53-.925-1.393-2.284-7.046.331-7.115.571a9.93 9.93 0 0 0 1.142-.776 6.668 6.668 0 0 0-1.633-.548c-.491-.8 2.284 0 2.284-.423.411-2.444-11.797-1.005-10.597.662a1.257 1.257 0 0 0 1.142 0c-.777-.434.137 2.958.057 1.93 0 .194-2.775-.319-3.232 0 .236.239.52.426.833.549 0 0-7.708-1.462-8.233-1.588-.526-.125-1.405 3.221-2.57 3.152-1.736-.103-3.06-4.237-3.94-4.18a3.08 3.08 0 0 0 1.565.309c2.204-1.291-5.493-5.859-7.138-5.516-1.199.251-1.45 2.821-1.884 2.889-.651.114-6.852-.148-7.023-.868-.115-.388.833-.868.434-.971-3.198-.833-5.71.663-7.697.857-.526 0 .102-1.861-.674-1.999-.377-.068-5.585 0-5.116.583.285.103.582.183.879.263.08.685-6.521 1.735-6.658 2.101 1.416-3.643 12.094-4.568 11.226-8.417-.263-1.142.445-2.09-1.919-3.22-3.014-1.416-5.287.845-7.994.171a7.453 7.453 0 0 1 1.051-1.484c0 .296-3.78-.731-4.248-.537.32-.137 2.604-.514 2.101-1.302-1.724-2.627-5.71.719-7.149 1.77.742-.537-2.775 4.123-2.901 1.93.289.301.607.572.948.811.16-.503-4.042.434-4.259.354.125-.308.262-.605.411-.902a29.269 29.269 0 0 0-4.705.902c.204.324.522.56.89.662-.068-.537-7.034 1.85-7.548 2.09-1.645.765-.8.697-1.508 1.645-.411 0-.833 0-1.244-.08-.149.159 1.427.902 1.439 1.039-.378.058-.76.084-1.142.08 0 0 1.735 1.028.947 1.747-.468.423-3.174.194-3.951.354-10.826 2.284 0 3.015-2.101 5.881-.834 1.142-6.247-3.574-7.834-1.998-.137.137 1.747 1.45 1.324 1.564-.822.229-2.078-.97-2.672.172-.468.913 3.826 2.364 3.495 2.763 0 0-4.568-.948-4.568-1.016-.903-1.028 1.553-3.963-.366-4.568-1.918-.605-3.049 8.622-2.284 9.673 2.067 2.809 5.927 1.324 7.229 5.607.685 2.284-3.963-3.175-1.941-2.284-1.382-.594-.937-1.793-2.764-1.473-2.604.445-.126 1.93-1.142 3.163-1.142 1.45-2.684 3.552-4.271 3.906-.434.102-4.328-.103-3.974-1.142-.057.137 5.139-.526 6.007-3.426.548-1.839-.366-3.312-.765-5.413-.115-.606.171-6.944.217-6.852-3.072-5.059-8.189.708-8.451 4.294.068-.994-.114 3.722-.343 3.129 0 0 5.55 3.563 2.284 4.088-2.284.388-11.42-7.674-14.241-6.064.743-.423 4.957 7.24.891 5.596-1.599-.651.057-.8-3.62-.468 0 0-5.881.982-5.424.616.456-.365 1.267-.742 1.142-1.656 0 .583-7.686 3.095-8.76 3.563-1.496.651-1.142 3.426-3.905 1.588-2.764-1.839 1.382-1.759 1.724-2.159 1.245-1.496-5.07-3.117-4.842-2.169 0-.263 1.485 4.739.297 3.871 2.958 2.135-.468 1.93-.662 2.078-3.426 2.741-3.426-.217-4.1 4.683-.114.822-2.832-.834-3.255-.503-.559-.354-1.142-.719-1.656-1.085-1.005.468-1.142 1.074-.457 1.827 1.656-.936 2.193 3.598-.696 1.314-.708-.56-4.625-9.136-6.224-8.383 1.142-.548 17.358 7.172 12.391-1.724-.948-1.713-11.055-5.984-11.911-4.911a2.28 2.28 0 0 0 1.073-.376c-.137-1.142-2.615 0-2.889-.263-.674-.742-2.284.925-2.775-.902.091.354 2.626-.331 2.695-.686.537-2.957-4.659-.319-4.02-.296-.514 0 .274-1.599.228-1.679-1.05-2.021-1.941 1.713-2.523 1.713-.206 0 .137-1.77-.229-1.53-.696.742-1.382 1.496-2.078 2.284-.754.148 1.473-2.444 1.462-2.501-.217-1.348-2.524 1.233-2.513 1.233.72-.617-2.901 2.056-1.838 1.736-1.394.422.365-3.141.536-2.478.092.308-2.112.251-2.078.776.312.311.523.709.605 1.142a4.683 4.683 0 0 0-1.644-.057c.186.344.473.623.822.799a6.12 6.12 0 0 1-1.93-.662c.091 0 .617 1.976 0 1.599-1.074-.708-.845-1.85-2.284-1.199-.114 0-3.129 2.284-3.072 2.626.057.343 1.473-.296 1.245.903 0 0-2.547 0-2.456.114.103-.446.217-.88.354-1.325a54.819 54.819 0 0 1-4.339 3.849c1.142 0 3.688-2.81 4.899-1.691 0 0-.183 1.234-.206 1.245-3.426 1.371-4.385 6.932-7.548 8.314-.274.126 1.29 1.142.765 1.37-1.804.697-1.816 1.394-3.312 2.627-.114.091-1.142-1.313-1.21-.434-.172 1.804-1.062.411-1.965 1.759a1.238 1.238 0 0 0 .777.639c-.959-2.124-3.426 3.426-3.335 2.992-.548 3.358 1.645 2.284 1.816 2.821.491 1.724-1.998.914-1.884.822-.123.496-.207 1-.251 1.508 0 .628 1.336-.685 1.587 0 .171.457-.834.936-.971 1.142-1.69 2.581 5.71.582 4.831.776 1.142-.262 1.816-2.147 2.501-2.546.411-.252 3.609 9.729 3.928 9.844 1.508.571 4.648-4.009 5.151-4.157-.206.525-.468.651-.8.377.297-2.684 3.506-4.808 3.426-6.852 0-2.673-3.026-1.405-2.044-5.334.56-2.284 2.284-2.478 3.426-4.088.925-1.313 2.444-5.105 4.191-5.71 8.12-2.684-1.884 6.784-2.135 7.263-.628 1.142-.172 5.779.388 6.338 2.284 2.284 6.567.594 9.045-.08.207-.34.44-.665.696-.97a7.06 7.06 0 0 0-.696.97 5.722 5.722 0 0 1 2.809 1.142c.548.64-6.966 1.462-6.635 1.302-4.819 2.284-.171 2.216-1.382 3.609-1.439 2.284-1.736.548-2.284 1.039-.194.172-3.768.434-2.444 3.106 1.291 2.901-1.267 3.609-2.878 4.192.137 0-4.202.422-5.241.559-2.284.274-1.074.594-2.17-.982-.468-.662-3.118 1.827-3.609 1.462a2.06 2.06 0 0 1 0-1.085c-.628-.171-2.535 0-2.284-1.656 0-.297 1.656.879 1.793.148.251-1.381-.788-.468-1.142-1.142-.194-.308 1.782-3.642.754-4.773-.697-.765-1.85 1.839-1.85 1.839-.743.742-1.462-.583-1.576 2.512 0 .994 1.907 3.255 1.416 4.225-.366.743-4.511 1.508-5.288 2.01a37.672 37.672 0 0 0-3.894 3.894 20.271 20.271 0 0 1-2.638 2.627c-1.142.537-3.631.229-4.008.445-.857.48.788 1.782 0 2.433-.788.651-3.049-1.37-3.575-.377-1.439 2.661.708.64 1.976 2.661 1.736 2.775 4.431 6.087.4 8.131-1.873.959-6.464-1.507-7.994-.685-2.867 1.564-.628 1.427-1.245 4.088-1.256 5.425-1.142 7.697 3.323 9.136 3.118 1.017 6.418.377 9.011-3.095 2.055-2.763 3.288-7.56 6.429-9.513-.708.446 6.566-.822 5.961-.845 3.118.16 1.142-.285 3.837 1.782-.08-.069 10.278 9.433 7.355 9.433 1.656 0 1.142-4.191 1.256-4.294a2.054 2.054 0 0 1 1.861.628c-1.142-.343-11.42-11.42-6.395-11.146.685 0 6.087 6.144 7.812 7.115-1.691-.994 4.51 9.444 4.51 7.012 0-2.147-2.797 5.321.857 3.311a4.84 4.84 0 0 0-.251-1.61c.329.091.676.091 1.005 0 .536-.662-1.142-.571-.777-.913.366-.343 2.09.639 1.839-.754-.297-1.69-1.211 0-1.839-.674.206.229-.263-3.426-.559-3.243.578.166 1.171.28 1.77.342.97-.434 6.155-.399 7.411-1.655-.331.331-2.078-2.776-1.964-3.426a20.601 20.601 0 0 1 2.49-3.918c.593-.845.867-2.786 2.101-3.357.776-.365 4.248-.228 4.442.822a7.694 7.694 0 0 1-1.941 1.142c-.069-.365 1.576 2.01 1.53 1.964-.046-.045 4.465-1.142 4.568-1.279.263-.456-4.065-.205-1.987-2.432.491-.514 5.356-2.284 5.71-1.587.08.171-3.426 3.426-3.3 4.042.456 2.181 7.137 3.369 6.92 5.71-.297 3.221-4.134 2.09-6.384 2.044-.959 0-1.724-1.084-2.661-1.142-3.072-.194-4.876.514-7.777 1.325-3.722 1.039-7.845 2.969-3.528 7.366 2.021 2.067 3.997 1.142 6.281 1.233.753 0 5.344-.993 5.961-.593.617.399-1.336 5.835-1.576 6.418l.765.354c0 .148 0 .319-.057.468 0-.149 0-.32.057-.468l-.742-.343c-2.284 5.356-6.624 4.26-12.277 3.198-1.496-.274-2.706-.994-4.202-1.199-2.421-.332-1.142-2.284-4.363-.629-1.062.56-.765 2.707-.879 2.753-1.907.753-10.13-2.045-12.254-4.226-2.124-2.181 1.473-4.042-.137-6.315-.982-1.382-7.674-.137-9.57.069a37.663 37.663 0 0 0-6.852 1.804c-2.341.662-4.237.468-6.418 1.039-1.85.491-1.142-.285-2.729.583 1.713-.914-3.689 4.019-3.026 2.957-.823 1.314-1.462 2.764-2.284 4.089-.594 1.027-.434 2.375-1.416 3.848-.64.971-1.942 1.142-2.661 1.873a25.826 25.826 0 0 0-4.74 7.594c-1.256 3.187-.514 3.7-.616 6.487-.103 2.592-.914 5.356-.834 7.914.091 2.809 1.359 3.94 2.729 6.155 3.084 5.014 6.738 9.65 12.654 10.278 3.139.117 6.274-.32 9.261-1.29.389-.103 4.351-2.284 4.763-1.793a37.332 37.332 0 0 0 3.357 1.804c.525.252.32 1.519.994 1.828.673.308 1.427-.72 1.987-.366 3.14 1.976 1.93.263 3.528 3.883.309.799-.616 3.357-.605 3.757.069 3.255 1.291 3.734 3.186 7.035 1.565 2.706 3.552 7.994 3.129 11.134-.456 3.324-2.889 6.201-3.037 9.844-.252 2.444 3.232 8.2 3.768 10.758.971 4.568 2.376 7.366 3.906 11.705 2.078 5.905.297 7.184 6.852 6.361 6.372-.776 9.992-2.775 13.327-9.136.52-1.659.902-3.359 1.142-5.081 2.284-3.289 3.632-1.497 4.26-5.79.445-3.05-1.462-3.038.194-5.962 1.325-2.352 4.968-2.706 6.384-4.819 2.923-4.397-.115-9.25-.948-13.704-.902-4.762 1.53-8.199 4.808-11.74 1.347-1.473 17.484-18.477 12.47-20.327-3.426-1.291-7.297 3.654-11.248 1.142M588.335 112.978c1.313-1.85-5.71-.834-4.134.56.754.662 3.529.285 4.134-.56ZM580.969 113.869c-.662.285-1.324.525-1.998.754-.88.982 4.454.822 4.796-.32.217-.697-2.889-.617-2.798-.434ZM580.753 111.322a11.446 11.446 0 0 0 2.672-1.039c-.56-.765-4.488.731-4.568.468a2.294 2.294 0 0 0 1.896.571Z"/><path stroke="gray" stroke-miterlimit="10" d="M703.221 194.483c.913 2.284-1.816 8.804-.389 10.632-.97-1.245 2.17.125 2.193.137.023.011-1.256-3.758-1.142-3.917 1.142-2.547 2.284-1.359 2.672-1.862.686-.925-3.346-11.191-2.775-11.557-1.621 1.039-1.05 5.379-.559 6.567ZM599.801 139.016a3.612 3.612 0 0 0 2.284-.571c.891-1.793-4.225.239-2.284.571ZM613.505 139.198c-.091-.753-1.667.217-1.142.526.526.308 1.222.228 1.142-.526ZM591.487 112.738l1.302-.685c.423-1.45-3.883.343-3.723.548.764.34 1.625.388 2.421.137ZM735.139 318.618c.092.571 3.712 3.597 4.226 3.22.514-.376-4.317-3.757-4.226-3.22ZM382.513 243.566c-.811-1.531.182 3.026.548 2.181a15.745 15.745 0 0 1-.548-2.181ZM406.346 268.61c1.073.24 1.427-.126 1.039-1.074-.765-.708-1.393.72-1.039 1.074ZM653.052 289.737c0-.423-1.142-.217-.765.377.377.594.765.045.765-.377ZM661.96 298.85a3.673 3.673 0 0 0 1.725.057c.765-.639-4.146-1.485-4.009-1.416a1.314 1.314 0 0 1 1.462-1.142c-1.279.856-12.459-2.901-11.717-.251.286 1.119 12.037 3.506 12.539 2.752ZM675.207 298.907c1.142 0 1.268-.148.469-.48-.571-.091-5.916.48-5.813.708.696 1.519 4.374-.171 5.344-.228ZM666.528 298.336c-.411 1.016-1.416-.354-1.941.343-1.074 1.439 3.689 1.404 4.1.411.251-.571-1.953-1.222-2.159-.754ZM653.874 284.072c3.255 3.324 1.668 6.19 7.035 6.476 4.465.228 4.717-3.324 7.617-6.955-.194.24-1.918-3.837-1.895-4.214.091-1.736 2.147-1.485 2.501-2.638.354-1.154-4.146-1.976-4.386-1.919-1.45.32-.719 2.878-3.209 2.684-.08 0-4.374 4.922-4.385 4.956.32-.765-5.539-.708-3.278 1.61ZM636.836 282.793c-.091.469.388 1.839.902 1.279.514-.559-.799-1.747-.902-1.279ZM638.972 286.859c-.092.228.388 1.142.685.891.297-.251-.422-1.645-.685-.891Z"/><path stroke="gray" stroke-miterlimit="10" d="M649.695 292.101c-.126-1.987.994-1.462.982-2.741 0-.56-1.816-2.284-1.85-1.222.349.343.655.727.914 1.142-.377.948-4.797-5.79-5.025-6.041-1.028-1.142-9.958-7.994-10.358-7.103-.286.662 6.852 10.94 7.8 12.242.948 1.302 7.948 10.027 7.537 3.723ZM671.37 301.488c0-1.279-2.546-.594-2.672-.799-.126-.206 2.672 1.941 2.672.799ZM668.481 289.269c-.205.377 2.718 4.648 1.508 5.15 1.142-.468.125-5.207 1.244-4.659 2.124 1.039-.228 3.974 2.616 1.758-1.508 1.142.079-7.811 1.233-5.276.148.343-6.43 2.067-4.785-.616 1.793-2.935 5.79.422 7.366-2.832-.948 1.964-4.865-.434-6.167.445-2.033 1.37-1.884 4.02-3.015 6.03ZM682.059 290.354a21.23 21.23 0 0 0 3.837 1.039c1.599 0-4.613-3.609-3.837-1.039ZM682.277 282.93c0-3.174-2.638 3.369-.217 2.89 1.598-.32.217-2.947.217-2.89ZM677.423 300.643c.742-.982 3.231-1.142 3.563-2.067.182-.548-3.826 1.222-4.203 1.268-.582.091-2.284 1.336-1.142 1.941a1.98 1.98 0 0 0 1.782-1.142ZM679.09 290.445c.183.754 1.428 1.142 1.77.525.343-.617-1.975-1.405-1.77-.525ZM509.138 215.039c-.4.742.503 4.99 2.158 2.9 1.359-1.724-1.119-4.865-2.158-2.9ZM518.525 220.109c.308-.068-3.312-.32-2.992.64a10.857 10.857 0 0 0 3.174 2.032 22.92 22.92 0 0 1 .983-2.569.91.91 0 0 0-1.165-.103Z"/><path stroke="#263238" stroke-linecap="round" stroke-linejoin="round" d="M261.118 520.798H759.19"/><path fill="#fff" d="M311.366 480.668s-30.251-53.126-23.274-66.636c6.978-13.51 24.827 10.792 24.827 10.792s-15.519-49.528-6.977-71.147c8.542-21.618 23.262 0 23.982 15.315.719 15.314-3.095 41.42-3.095 41.42s6.201-54.028 20.933-37.823-18.615 70.244-18.615 70.244 22.498-12.562 21.698 3.609c-.799 16.171-27.145 30.617-27.145 30.617"/><path stroke="#263238" stroke-miterlimit="10" d="M311.629 470.767s-28.002-26.118-14.367-37.823c13.636-11.706 20.819 12.562 20.819 12.562s-15.074-74.744 9.342-77.451c24.416-2.706 6.452 64.843 6.452 64.843s20.819-28.824 19.414-5.402c-1.405 23.423-32.33 43.271-32.33 43.271M325.379 466.005l-18.923-20.499M321.438 467.592l5.117-59.921M320.64 463.252l16.958-22.474"/><path fill="#263238" d="M345.158 459.073h-52.326l5.23 61.725h41.866l5.23-61.725Z"/><path fill="#fff" stroke="#263238" stroke-miterlimit="10" d="m682.516 145.925-59.201 3.677a13.064 13.064 0 0 0-12.254 13.213l.297 23.788-17.21 1.827 17.347 8.953a13.076 13.076 0 0 0 3.975 9.206 13.06 13.06 0 0 0 9.329 3.676l57.477-1.051a13.058 13.058 0 0 0 8.904-3.733 13.058 13.058 0 0 0 3.909-8.829l1.325-37.183a13.057 13.057 0 0 0-3.933-9.867 13.044 13.044 0 0 0-9.965-3.677Z"/><path fill="#8C8C8C" stroke="#263238" stroke-linecap="round" stroke-linejoin="round" d="M670.525 152.069h-38.771v24.416h38.771v-24.416Z"/><path fill="#696969" stroke="#263238" stroke-linecap="round" stroke-linejoin="round" d="M670.525 152.069h-22.018v24.416h22.018v-24.416Z"/><path fill="#fff" stroke="#263238" stroke-linecap="round" stroke-linejoin="round" d="M659.037 152.069h-15.794v24.416h15.794v-24.416Z"/><path fill="#263238" d="M631.468 196.241v-6.201c0-2.98 2.113-4.967 5.299-4.967 3.186 0 5.299 1.941 5.299 4.876 0 .137-.114.228-.285.251l-1.017.069c-.183 0-.297 0-.297-.137v-.137a3.7 3.7 0 1 0-7.4 0v6.315a3.7 3.7 0 0 0 7.4 0 .248.248 0 0 1 .084-.202.24.24 0 0 1 .213-.049h1.017c.171 0 .285 0 .285.114v.114c0 2.958-2.113 4.922-5.299 4.922-3.186 0-5.299-1.964-5.299-4.968ZM645.092 186.409a1.226 1.226 0 0 1 .697-1.185 1.226 1.226 0 0 1 1.715.835 1.22 1.22 0 0 1-1.19 1.492 1.148 1.148 0 0 1-1.128-.686 1.153 1.153 0 0 1-.094-.456Zm.434 14.343v-10.826a.279.279 0 0 1 .172-.278.277.277 0 0 1 .114-.019h1.016a.28.28 0 0 1 .282.179.279.279 0 0 1 .015.118v10.826a.279.279 0 0 1-.015.118.277.277 0 0 1-.282.179h-1.016a.277.277 0 0 1-.21-.084.27.27 0 0 1-.076-.213ZM659.082 193.238v7.514a.281.281 0 0 1-.075.213.297.297 0 0 1-.096.065.28.28 0 0 1-.114.019h-1.017a.272.272 0 0 1-.297-.297v-.811c0-.091-.068-.137-.137 0a4.773 4.773 0 0 1-3.517 1.337c-1.919 0-3.723-.926-3.723-3.301s1.713-3.654 4.648-3.654h2.638c.015.002.031 0 .046-.005a.108.108 0 0 0 .039-.025.098.098 0 0 0 .024-.039.098.098 0 0 0 .005-.045v-.834a2.29 2.29 0 0 0-.709-1.888 2.285 2.285 0 0 0-1.929-.59c-1.427 0-2.352.582-2.604 1.53a.246.246 0 0 1-.035.108.26.26 0 0 1-.296.12l-1.142-.137c-.183 0-.297-.091-.274-.239.297-1.656 1.964-2.787 4.294-2.787 2.764-.046 4.271 1.519 4.271 3.746Zm-1.599 4.157v-1.736a.102.102 0 0 0-.068-.109c-.015-.005-.03-.007-.046-.005h-2.364c-1.964 0-3.3.833-3.3 2.284 0 1.45 1.142 1.998 2.478 1.998 1.679.023 3.3-.856 3.3-2.432ZM662.36 198.091a9.763 9.763 0 0 1-.32-2.775c-.025-.926.074-1.852.297-2.752a4.681 4.681 0 0 1 8.816 0 9.95 9.95 0 0 1 .32 2.775c.027.936-.08 1.87-.32 2.775a4.648 4.648 0 0 1-8.793 0v-.023Zm7.309-.468c.144-.752.205-1.518.183-2.284a9.617 9.617 0 0 0-.183-2.284 3.031 3.031 0 0 0-2.912-2.203 3.026 3.026 0 0 0-2.912 2.203 14.287 14.287 0 0 0 0 4.568 3.026 3.026 0 0 0 5.824 0Z"/><path fill="#fff" stroke="#263238" stroke-miterlimit="10" d="m434.554 175.194-23.411-6.326 5.287-34.706a11.022 11.022 0 0 0-2.838-9.18 11.023 11.023 0 0 0-8.959-3.473l-49.711 4.111a11 11 0 0 0-7.5 3.844 11.006 11.006 0 0 0-2.584 8.021l3.654 45.52a11.018 11.018 0 0 0 10.552 10.13l38.257 1.507a10.993 10.993 0 0 0 11.329-9.341l.994-6.498 24.93-3.609Z"/><path fill="#8C8C8C" stroke="#263238" stroke-linecap="round" stroke-linejoin="round" d="M399.768 131.216h-38.771v24.416h38.771v-24.416Z"/><path fill="#fff" stroke="#263238" stroke-linecap="round" stroke-linejoin="round" d="M399.768 137.131h-38.771v12.597h38.771v-12.597Z"/><path fill="#263238" d="M370.007 164.448h1.017a.277.277 0 0 1 .21.084.268.268 0 0 1 .06.098.251.251 0 0 1 .015.115v15.211a.251.251 0 0 1-.015.115.268.268 0 0 1-.156.163.277.277 0 0 1-.114.019h-1.017a.274.274 0 0 1-.297-.297v-6.852a.098.098 0 0 0-.004-.045.114.114 0 0 0-.025-.039.1.1 0 0 0-.039-.025c-.015-.005-.03-.007-.046-.005h-7.149a.1.1 0 0 0-.084.03.1.1 0 0 0-.025.039c-.005.014-.007.03-.005.045v6.852a.277.277 0 0 1-.297.297h-1.016a.26.26 0 0 1-.275-.18.27.27 0 0 1-.011-.117v-15.257a.262.262 0 0 1 .286-.297h1.016a.28.28 0 0 1 .218.08.277.277 0 0 1 .079.217v6.749a.1.1 0 0 0 .03.085.1.1 0 0 0 .039.025c.014.005.03.006.045.005h7.161a.104.104 0 0 0 .109-.069c.005-.014.007-.03.005-.046v-6.749a.274.274 0 0 1 .285-.251ZM375.124 177.25a9.871 9.871 0 0 1-.309-2.775c-.028-.926.068-1.852.286-2.752a4.689 4.689 0 0 1 4.414-3.098 4.696 4.696 0 0 1 4.413 3.098c.237.905.344 1.839.32 2.775a9.84 9.84 0 0 1-.32 2.775 4.66 4.66 0 0 1-8.804 0v-.023Zm7.308-.48c.146-.752.207-1.518.183-2.284a9.622 9.622 0 0 0-.183-2.284 3.012 3.012 0 0 0-4.733-1.597c-.525.4-.904.961-1.079 1.597a9.945 9.945 0 0 0-.183 2.284 9.67 9.67 0 0 0 .183 2.284 3.012 3.012 0 0 0 4.733 1.597c.525-.4.904-.961 1.079-1.597ZM387.492 179.911v-15.212a.272.272 0 0 1 .297-.297h1.016a.277.277 0 0 1 .286.297v15.212a.274.274 0 0 1-.286.297h-1.016a.28.28 0 0 1-.218-.08.277.277 0 0 1-.079-.217ZM400.945 172.442v7.514a.28.28 0 0 1-.08.218.277.277 0 0 1-.217.079h-1.017a.272.272 0 0 1-.297-.297v-.81c0-.092-.068-.137-.137 0a4.755 4.755 0 0 1-3.517 1.324c-1.919 0-3.723-.925-3.723-3.289s1.713-3.654 4.648-3.654h2.615a.102.102 0 0 0 .114-.114v-.971a2.286 2.286 0 0 0-1.602-2.419 2.284 2.284 0 0 0-1.036-.071c-1.416 0-2.341.594-2.592 1.542a.255.255 0 0 1-.039.108.266.266 0 0 1-.304.109l-1.142-.125c-.171 0-.285-.092-.262-.252.285-1.644 1.964-2.775 4.282-2.775 2.787.046 4.306 1.599 4.306 3.883Zm-1.645 4.1v-1.736a.104.104 0 0 0-.029-.085.106.106 0 0 0-.039-.024c-.015-.005-.031-.007-.046-.005h-2.364c-1.964 0-3.3.833-3.3 2.284 0 1.45 1.142 2.01 2.489 2.01 1.702.023 3.289-.834 3.289-2.444Z"/><path fill="#fff" stroke="#263238" stroke-miterlimit="10" d="M701.119 234.875h-30.457a23.216 23.216 0 0 0-23.217 23.217v8.576l-15.177-.582 15.222 9.935v6.43a23.23 23.23 0 0 0 23.217 23.228h30.457a23.228 23.228 0 0 0 23.217-23.228v-24.359a23.226 23.226 0 0 0-6.816-16.433 23.219 23.219 0 0 0-16.446-6.784Z"/><path fill="#263238" d="M673.894 278.191h1.016a.28.28 0 0 1 .206.08.28.28 0 0 1 .08.206v15.211a.27.27 0 0 1-.076.213.277.277 0 0 1-.21.084h-1.016a.279.279 0 0 1-.118-.015.285.285 0 0 1-.1-.064.285.285 0 0 1-.064-.1.279.279 0 0 1-.015-.118v-6.852a.104.104 0 0 0-.029-.085.106.106 0 0 0-.039-.024c-.015-.005-.031-.007-.046-.005h-7.149a.102.102 0 0 0-.114.114v6.852a.28.28 0 0 1-.08.218.277.277 0 0 1-.217.079h-1.017a.272.272 0 0 1-.297-.297v-15.211a.277.277 0 0 1 .297-.286h1.017a.274.274 0 0 1 .297.286v6.749a.106.106 0 0 0 .029.085.102.102 0 0 0 .085.029h7.149a.104.104 0 0 0 .085-.029.106.106 0 0 0 .029-.085v-6.749a.277.277 0 0 1 .084-.21.27.27 0 0 1 .213-.076ZM686.387 291.096a.26.26 0 0 1 .161-.163.269.269 0 0 1 .227.026l.651.365c.16.092.229.229.137.377a4.407 4.407 0 0 1-4.191 2.467 4.17 4.17 0 0 1-4.225-2.821 8.752 8.752 0 0 1-.434-3.118c-.042-.877.027-1.755.205-2.615a4.27 4.27 0 0 1 4.363-3.232 4.214 4.214 0 0 1 4.511 3.883c.119.755.165 1.52.137 2.284a.29.29 0 0 1-.015.117.267.267 0 0 1-.282.169h-7.218a.106.106 0 0 0-.085.029.102.102 0 0 0-.029.085 7.249 7.249 0 0 0 .137 1.656 2.915 2.915 0 0 0 3.061 2.204 3.094 3.094 0 0 0 2.889-1.713Zm-5.904-5.196a6.35 6.35 0 0 0-.183 1.541.102.102 0 0 0 .029.085c.011.011.025.02.039.025.015.005.031.006.046.005h5.802a.106.106 0 0 0 .077-.034.109.109 0 0 0 .025-.081c-.012-.485-.053-.97-.125-1.45a2.823 2.823 0 0 0-2.912-2.204 2.674 2.674 0 0 0-2.798 2.113ZM691.104 293.688v-15.211a.261.261 0 0 1 .019-.114.261.261 0 0 1 .064-.096.283.283 0 0 1 .214-.076h1.016a.272.272 0 0 1 .21.076.262.262 0 0 1 .075.21v15.211a.258.258 0 0 1-.07.218.273.273 0 0 1-.215.079h-1.016a.277.277 0 0 1-.297-.297ZM696.346 293.688v-15.211a.274.274 0 0 1 .285-.286h1.017a.276.276 0 0 1 .297.286v15.211a.28.28 0 0 1-.08.218.277.277 0 0 1-.217.079h-1.017a.277.277 0 0 1-.21-.084.265.265 0 0 1-.075-.213ZM701.53 291.027a9.762 9.762 0 0 1-.319-2.775c-.026-.926.074-1.852.297-2.752a4.697 4.697 0 0 1 1.717-2.246 4.697 4.697 0 0 1 7.11 2.246c.232.906.336 1.84.309 2.775.03.935-.074 1.87-.309 2.775a4.655 4.655 0 0 1-4.402 3.134 4.656 4.656 0 0 1-4.403-3.134v-.023Zm7.309-.468c.144-.752.205-1.518.183-2.284a9.727 9.727 0 0 0-.183-2.284 3.014 3.014 0 0 0-5.813 0 10 10 0 0 0-.182 2.284 9.89 9.89 0 0 0 .182 2.284 3.02 3.02 0 0 0 2.907 2.213 3.011 3.011 0 0 0 2.906-2.213Z"/><path fill="#fff" stroke="#263238" stroke-linecap="round" stroke-linejoin="round" d="M705.458 245.005h-38.77v24.416h38.77v-24.416Z"/><path fill="#263238" d="M705.664 245.005h-38.771v2.364h38.771v-2.364ZM705.664 248.705h-38.771v2.364h38.771v-2.364ZM705.664 252.393h-38.771v2.364h38.771v-2.364ZM705.664 256.094h-38.771v2.363h38.771v-2.363ZM705.664 259.794h-38.771v2.364h38.771v-2.364ZM705.664 263.494h-38.771v2.364h38.771v-2.364ZM705.664 267.194h-38.771v2.364h38.771v-2.364Z"/><path fill="#263238" d="M685.485 245.005h-18.797v13.007h18.797v-13.007Z"/><path fill="#fff" d="m667.418 246.101.172.365.365.058-.263.285.058.4-.332-.183-.319.183.057-.4-.263-.285.365-.058.16-.365ZM667.418 248.511l.172.365.365.057-.263.286.058.399-.332-.194-.319.194.057-.399-.263-.286.365-.057.16-.365ZM667.418 250.909l.172.365.365.057-.263.286.058.4-.332-.195-.319.195.057-.4-.263-.286.365-.057.16-.365ZM667.418 253.307l.172.365.365.069-.263.274.058.4-.332-.183-.319.183.057-.4-.263-.274.365-.069.16-.365ZM667.418 255.717l.172.365.365.057-.263.286.058.399-.332-.194-.319.194.057-.399-.263-.286.365-.057.16-.365ZM669.143 247.506l.16.365.365.057-.262.286.057.399-.32-.182-.331.182.057-.399-.263-.286.366-.057.171-.365ZM669.143 249.915l.16.366.365.057-.262.285.057.4-.32-.194-.331.194.057-.4-.263-.285.366-.057.171-.366ZM669.143 252.313l.16.366.365.057-.262.286.057.399-.32-.183-.331.183.057-.399-.263-.286.366-.057.171-.366ZM669.143 254.712l.16.365.365.057-.262.286.057.399-.32-.182-.331.182.057-.399-.263-.286.366-.057.171-.365ZM670.856 246.101l.171.365.366.058-.274.285.068.4-.331-.183-.331.183.068-.4-.274-.285.377-.058.16-.365ZM670.856 248.511l.171.365.366.057-.274.286.068.399-.331-.194-.331.194.068-.399-.274-.286.377-.057.16-.365ZM670.856 250.909l.171.365.366.057-.274.286.068.4-.331-.195-.331.195.068-.4-.274-.286.377-.057.16-.365ZM670.856 253.307l.171.365.366.069-.274.274.068.4-.331-.183-.331.183.068-.4-.274-.274.377-.069.16-.365ZM670.856 255.717l.171.365.366.057-.274.286.068.399-.331-.194-.331.194.068-.399-.274-.286.377-.057.16-.365ZM672.581 247.506l.16.365.365.057-.263.286.058.399-.32-.182-.331.182.057-.399-.263-.286.365-.057.172-.365ZM672.581 249.915l.16.366.365.057-.263.285.058.4-.32-.194-.331.194.057-.4-.263-.285.365-.057.172-.366ZM672.581 252.313l.16.366.365.057-.263.286.058.399-.32-.183-.331.183.057-.399-.263-.286.365-.057.172-.366ZM672.581 254.712l.16.365.365.057-.263.286.058.399-.32-.182-.331.182.057-.399-.263-.286.365-.057.172-.365ZM674.294 246.101l.159.365.366.058-.263.285.069.4-.331-.183-.332.183.057-.4-.262-.285.365-.058.172-.365ZM674.294 248.511l.159.365.366.057-.263.286.069.399-.331-.194-.332.194.057-.399-.262-.286.365-.057.172-.365ZM674.294 250.909l.159.365.366.057-.263.286.069.4-.331-.195-.332.195.057-.4-.262-.286.365-.057.172-.365ZM674.294 253.307l.159.365.366.069-.263.274.069.4-.331-.183-.332.183.057-.4-.262-.274.365-.069.172-.365ZM674.294 255.717l.159.365.366.057-.263.286.069.399-.331-.194-.332.194.057-.399-.262-.286.365-.057.172-.365ZM676.006 247.506l.172.365.365.057-.263.286.057.399-.331-.182-.331.182.069-.399-.263-.286.365-.057.16-.365ZM676.006 249.915l.172.366.365.057-.263.285.057.4-.331-.194-.331.194.069-.4-.263-.285.365-.057.16-.366ZM676.006 252.313l.172.366.365.057-.263.286.057.399-.331-.183-.331.183.069-.399-.263-.286.365-.057.16-.366ZM676.006 254.712l.172.365.365.057-.263.286.057.399-.331-.182-.331.182.069-.399-.263-.286.365-.057.16-.365ZM677.731 246.101l.16.365.365.058-.262.285.057.4-.32-.183-.331.183.057-.4-.263-.285.366-.058.171-.365ZM677.731 248.511l.16.365.365.057-.262.286.057.399-.32-.194-.331.194.057-.399-.263-.286.366-.057.171-.365ZM677.731 250.909l.16.365.365.057-.262.286.057.4-.32-.195-.331.195.057-.4-.263-.286.366-.057.171-.365ZM677.731 253.307l.16.365.365.069-.262.274.057.4-.32-.183-.331.183.057-.4-.263-.274.366-.069.171-.365ZM677.731 255.717l.16.365.365.057-.262.286.057.399-.32-.194-.331.194.057-.399-.263-.286.366-.057.171-.365ZM679.444 247.506l.16.365.377.057-.274.286.068.399-.331-.182-.331.182.068-.399-.274-.286.377-.057.16-.365ZM679.444 249.915l.16.366.377.057-.274.285.068.4-.331-.194-.331.194.068-.4-.274-.285.377-.057.16-.366ZM679.444 252.313l.16.366.377.057-.274.286.068.399-.331-.183-.331.183.068-.399-.274-.286.377-.057.16-.366ZM679.444 254.712l.16.365.377.057-.274.286.068.399-.331-.182-.331.182.068-.399-.274-.286.377-.057.16-.365ZM681.157 246.101l.171.365.365.058-.262.285.057.4-.331-.183-.32.183.057-.4-.263-.285.366-.058.16-.365ZM681.157 248.511l.171.365.365.057-.262.286.057.399-.331-.194-.32.194.057-.399-.263-.286.366-.057.16-.365ZM681.157 250.909l.171.365.365.057-.262.286.057.4-.331-.195-.32.195.057-.4-.263-.286.366-.057.16-.365ZM681.157 253.307l.171.365.365.069-.262.274.057.4-.331-.183-.32.183.057-.4-.263-.274.366-.069.16-.365ZM681.157 255.717l.171.365.365.057-.262.286.057.399-.331-.194-.32.194.057-.399-.263-.286.366-.057.16-.365ZM682.881 247.506l.16.365.366.057-.263.286.069.399-.332-.182-.331.182.057-.399-.262-.286.365-.057.171-.365ZM682.881 249.915l.16.366.366.057-.263.285.069.4-.332-.194-.331.194.057-.4-.262-.285.365-.057.171-.366ZM682.881 252.313l.16.366.366.057-.263.286.069.399-.332-.183-.331.183.057-.399-.262-.286.365-.057.171-.366ZM682.881 254.712l.16.365.366.057-.263.286.069.399-.332-.182-.331.182.057-.399-.262-.286.365-.057.171-.365ZM684.594 246.101l.171.365.366.058-.263.285.057.4-.331-.183-.331.183.069-.4-.263-.285.365-.058.16-.365ZM684.594 248.511l.171.365.366.057-.263.286.057.399-.331-.194-.331.194.069-.399-.263-.286.365-.057.16-.365ZM684.594 250.909l.171.365.366.057-.263.286.057.4-.331-.195-.331.195.069-.4-.263-.286.365-.057.16-.365ZM684.594 253.307l.171.365.366.069-.263.274.057.4-.331-.183-.331.183.069-.4-.263-.274.365-.069.16-.365ZM684.594 255.717l.171.365.366.057-.263.286.057.399-.331-.194-.331.194.069-.399-.263-.286.365-.057.16-.365Z"/><path fill="#fff" stroke="#263238" stroke-miterlimit="10" d="M414.032 270.186h-20.02a39.157 39.157 0 0 0-69.822-9.877 39.16 39.16 0 1 0 71.684 21.674v-.88l18.158-10.917Z"/><path fill="#263238" d="M337.734 295.036a28.292 28.292 0 0 1-2.386 3.529c-.296-.43-.62-.838-.971-1.222a33.838 33.838 0 0 0 5.436-10.986l1.873.559c-.092.229-.286.274-.537.251a49.344 49.344 0 0 1-2.147 5.345l.651.183c0 .137-.148.251-.445.262v14.355h-1.474v-12.276Zm15.452.548c.182-.834.411-2.101.605-3.323h-4.488v13.178c0 1.622-.583 1.919-3.746 1.919a6.085 6.085 0 0 0-.559-1.553h2.432c.297 0 .388-.092.388-.388v-13.156h-3.631a19.958 19.958 0 0 1-2.284 4.271 6.12 6.12 0 0 0-1.142-.925 24.457 24.457 0 0 0 3.723-9.193l1.873.502c0 .16-.195.251-.492.229a34.979 34.979 0 0 1-1.142 3.7H355.493a39.483 39.483 0 0 1-1.017 4.956l-1.29-.217Zm-7.218.742c-.068.16-.228.251-.502.251a22.16 22.16 0 0 1-3.426 7.538 7.254 7.254 0 0 0-1.199-.777 20.486 20.486 0 0 0 3.3-7.56l1.827.548Zm8.188 7.606a31.281 31.281 0 0 0-3.094-7.789l1.336-.468a30.2 30.2 0 0 1 3.209 7.709l-1.451.548ZM364.948 291.073l.857.217-.137.32a29.525 29.525 0 0 1-2.17 9.707 15.908 15.908 0 0 1 2.684 2.455l-.925 1.245a15.324 15.324 0 0 0-2.41-2.353 12.203 12.203 0 0 1-4.465 4.717 7.046 7.046 0 0 0-.948-1.245 10.665 10.665 0 0 0 4.237-4.397 30.123 30.123 0 0 0-2.57-1.736l-.274.994-1.29-.674c.571-1.987 1.267-4.853 1.918-7.765h-2.284v-1.428h2.57c.365-1.69.674-3.312.948-4.762l1.85.228c0 .16-.16.252-.446.274a188.263 188.263 0 0 1-.902 4.26h3.426l.331-.057Zm-4.065 1.485c-.48 2.101-.994 4.214-1.473 6.064a35.676 35.676 0 0 1 2.866 1.793 26.54 26.54 0 0 0 1.873-7.857h-3.266Zm17.221 3.882v1.462h-5.447v7.469c0 1.736-.674 2.01-4.671 1.964a7.686 7.686 0 0 0-.559-1.507h2.706c.765 0 .994 0 .994-.48v-7.492h-5.528v-1.461h5.528v-3.837h.742a22.848 22.848 0 0 0 3.346-3.678h-8.691v-1.427h9.833l.297-.092 1.199.754a.73.73 0 0 1-.365.217 28.34 28.34 0 0 1-4.831 5.219v2.798l5.447.091Z"/><path fill="#263238" stroke="#263238" stroke-linecap="round" stroke-linejoin="round" d="M376.175 254.894h-38.771v24.416h38.771v-24.416Z"/><path fill="#fff" d="m341.983 256.333.948 1.907 2.09.297-1.519 1.485.366 2.078-1.885-.982-1.873.982.366-2.078-1.519-1.485 2.09-.297.936-1.907ZM348.07 255.591l.491.982 1.073.16-.776.754.183 1.073-.971-.502-.959.502.182-1.073-.788-.754 1.085-.16.48-.982ZM349.383 260.547l.48.982 1.085.149-.788.765.183 1.073-.96-.502-.97.502.182-1.073-.776-.765 1.073-.149.491-.982ZM346.163 263.791l.479.97 1.085.16-.776.765.182 1.074-.97-.514-.96.514.183-1.074-.788-.765 1.085-.16.48-.97ZM341.697 265.275l.48.971 1.085.16-.777.765.183 1.073-.971-.502-.959.502.183-1.073-.788-.765 1.085-.16.479-.971Z"/><path stroke="#263238" stroke-linecap="round" stroke-linejoin="round" stroke-width="3" d="M574.574 177.558a47.365 47.365 0 0 0-29.242-43.764 47.365 47.365 0 0 0-18.128-3.606h-16.491a47.37 47.37 0 0 0-47.37 47.37"/><path stroke="#263238" stroke-linecap="round" stroke-linejoin="round" stroke-width="6" d="M574.574 212.64v-35.082M463.343 177.558v35.082"/><path fill="#fff" stroke="#263238" stroke-linecap="round" stroke-linejoin="round" d="M497.364 265.275s2.957 20.659 2.364 25.969c-.594 5.311-1.771 10.621-16.525 4.717-14.755-5.904-41.306 4.728-58.425 25.375-17.118 20.647-49.563 89.704-49.563 97.961 0 8.256 6.487 19.414 18.272 21.241 11.786 1.827 39.536-31.862 39.536-31.862s11.797 66.681 11.797 71.946c0 5.265-5.287 40.13-5.287 40.13h167.006l-6.498-43.076 11.808-95.015s48.981 66.682 59.601 69.662c10.621 2.981 27.145-2.364 31.28-14.754 4.134-12.391-2.364-25.376-10.632-34.82-8.269-9.444-60.184-92.65-69.662-100.313-9.479-7.663-35.996-8.268-45.441-5.904-9.444 2.364-25.375 5.904-29.509 3.54s-4.123-24.782 0-34.82c.034.023-35.962 9.467-50.122.023Z"/><path stroke="#263238" stroke-linecap="round" stroke-linejoin="round" d="M474.295 444.957a59.911 59.911 0 0 0 5.813 1.908M443.838 407.1s2.626 22.931 24.233 34.945M511.044 339.939l11.489 16.788M624.651 355.984l3.038-6.326M619.728 347.888l-7.879 34.819 9.684-20.202M655.108 410.629s12.471-7.994 24.747-7.994"/><path fill="#fff" stroke="#263238" stroke-linecap="round" stroke-linejoin="round" d="M629.732 434.577a170.143 170.143 0 0 0 22.601-14.641 50.568 50.568 0 0 1 35.973-10.186c11.774 1.267 18.146 15.908 18.454 30.559.309 14.652-7.64 23.549-21.96 25.775-14.321 2.227-31.2-.947-41.695-3.494a138.22 138.22 0 0 0-16.878-3.186s-13.682-21.013 3.505-24.827Z"/><path fill="#fff" stroke="#263238" stroke-linecap="round" stroke-linejoin="round" d="M706.761 440.309c-.308-14.651-6.681-29.292-18.455-30.559a50.568 50.568 0 0 0-35.973 10.186l-1.599 1.222c13.704.468 41.409 6.064 37.07 44.333 12.425-2.981 19.254-11.603 18.957-25.182ZM497.363 265.275s2.958 20.659 2.364 25.969c-.445 3.986-1.222 7.994-7.8 7.218 9.41 15.382 36.738 51.492 62.239 2.284-2.969.182-5.367 0-6.646-.708-4.123-2.364-4.123-24.782 0-34.82 0 .057-35.996 9.502-50.157.057Z"/><path fill="#263238" stroke="#263238" stroke-linecap="round" stroke-linejoin="round" d="M497.363 265.275s.765 5.368 1.439 11.329a52.3 52.3 0 0 0 22.155 6.03 42.781 42.781 0 0 0 24.107-6.978 42.696 42.696 0 0 1 2.455-10.381s-35.995 9.445-50.156 0ZM464.931 193.854h-3.255a7.24 7.24 0 0 0-7.24 7.241V228.8a7.24 7.24 0 0 0 7.24 7.24h3.255a7.24 7.24 0 0 0 7.24-7.24v-27.705a7.24 7.24 0 0 0-7.24-7.241Z"/><path fill="#fff" stroke="#263238" stroke-linecap="round" stroke-linejoin="round" d="M465.114 193.889H461.482v42.117H465.114v-42.117Z"/><path fill="#263238" stroke="#263238" stroke-linecap="round" stroke-linejoin="round" d="M576.527 193.854h-3.254a7.241 7.241 0 0 0-7.241 7.241V228.8a7.24 7.24 0 0 0 7.241 7.24h3.254a7.24 7.24 0 0 0 7.24-7.24v-27.705a7.24 7.24 0 0 0-7.24-7.241Z"/><path fill="#fff" stroke="#263238" stroke-linecap="round" stroke-linejoin="round" d="M576.721 193.889H573.089v42.117H576.721v-42.117ZM435.421 227.167a8.321 8.321 0 0 0-6.612 4.408c-2.649 4.408-11.02 20.716-10.141 25.569.88 4.854 37.469 39.228 37.469 41.432 0 2.204-29.086 41.877-48.489 59.51-19.403 17.632-34.82 37.457-37.469 53.331-2.65 15.874 6.612 29.087 16.319 31.736 9.707 2.65 21.595-3.083 35.254-20.282 13.658-17.198 51.138-92.125 56.871-117.626 0 0 1.314-11.42-3.974-18.078-5.287-6.658-18.512-22.04-18.512-22.04s2.65-30.412.446-32.616c-2.204-2.204-4.408 2.65-4.408 2.65s-2.045-10.198-4.854-9.707c-3.072.548-3.963 4.408-3.963 4.408s-2.204-8.874-7.937-2.695Z"/><path stroke="#263238" stroke-linecap="round" stroke-linejoin="round" d="M452.175 235.104s-6.327 25.318-5.71 29.589M443.358 229.805s-6.703 24.621-7.56 28.047a8.436 8.436 0 0 0 1.074 6.635M435.421 227.167s-9.467 26.403-9.467 29.189c0 2.787 2.147 6.201 2.147 6.201"/><path fill="#fff" stroke="#263238" stroke-linecap="round" stroke-linejoin="round" d="M426.993 337.495a232.107 232.107 0 0 1-19.345 20.556c-19.414 17.621-34.82 37.458-37.469 53.332-2.65 15.873 6.612 29.086 16.319 31.736 9.707 2.649 21.595-3.084 35.254-20.282 7.868-9.89 23.605-38.897 36.646-66.613-19.87-5.276-28.07-13.498-31.405-18.729ZM471.783 171.997s-.765 61.359 1.542 72.871c2.306 11.511 23.011 31.062 46.822 31.827 23.81.765 42.573-21.093 44.869-32.604 2.295-11.511 0-57.522-.377-75.932-.377-18.409-26.849-34.899-53.674-30.685-26.826 4.214-40.712 19.939-39.182 34.523Z"/><path stroke="#263238" stroke-linecap="round" stroke-linejoin="round" d="M530.082 196.926s1.53 10.735 3.072 13.031c1.541 2.295 4.214 5.379-1.142 7.674-5.356 2.295-9.593-.388-9.593-3.072"/><path fill="#fff" stroke="#263238" stroke-linecap="round" stroke-linejoin="round" d="M535.837 234.887s-20.716 2.649-29.92-6.487c0 0 2.284 14.195 9.204 16.502 6.921 2.307 20.716-10.015 20.716-10.015Z"/><path stroke="#263238" stroke-linecap="round" stroke-linejoin="round" d="m508.989 197.303 1.918 6.133"/><path stroke="#263238" stroke-linecap="round" stroke-linejoin="round" stroke-width="2" d="M500.55 203.059s5.367 3.426 15.337.377"/><path stroke="#263238" stroke-linecap="round" stroke-linejoin="round" d="m546.572 197.303 1.919 6.133"/><path stroke="#263238" stroke-linecap="round" stroke-linejoin="round" stroke-width="2" d="M538.133 203.059s5.367 3.426 15.348.377M497.866 186.569a20.121 20.121 0 0 1 16.102-8.052M534.684 177.741s11.123-3.061 18.797 5.71"/><path stroke="#263238" stroke-linecap="round" stroke-linejoin="round" d="M520.352 194.14a10.594 10.594 0 0 1-.137 10.94l-.217.343a17.84 17.84 0 0 1-6.487 6.171 17.833 17.833 0 0 1-8.667 2.245h-2.398a13.92 13.92 0 0 1-12.037-6.931v0a11.555 11.555 0 0 1 3.29-15.214 11.538 11.538 0 0 1 5.96-2.111l10.918-.685a10.565 10.565 0 0 1 9.775 5.242v0ZM532.914 194.14a10.603 10.603 0 0 0 .137 10.94l.217.343a17.848 17.848 0 0 0 15.155 8.417h2.398a13.92 13.92 0 0 0 12.037-6.932v0a11.526 11.526 0 0 0 .662-10.278v0a11.534 11.534 0 0 0-9.913-7.047l-10.906-.685a10.594 10.594 0 0 0-9.787 5.242v0ZM521.642 196.15s3.426-2.684 9.97 0M517.04 190.406h18.797M489.724 196.618h-17.941"/><path fill="#263238" d="M540.44 155.883s9.935 31.907 25.021 40.153c-.331-10.941-.719-21.219-.856-27.876-.388-18.41-26.849-34.9-53.674-30.686-26.826 4.214-40.655 19.939-39.125 34.523 0 0-.126 10.015-.114 22.725 12.95-5.584 47.05-21.138 68.748-38.839Z"/><path stroke="#737373" stroke-linecap="round" stroke-linejoin="round" d="M469.123 186.34s50.305-21.093 77.496-47.872M465.057 169.302s52.749-12.174 83.183-44.23M550.261 142.11s.811 20.694 22.726 39.765"/><path fill="#263238" d="M544.551 270.871s0 13.91-10.427 36.076c-10.426 22.166-10.872 44.332-3.917 60.846 6.955 16.513 25.649 23.045 45.68 15.656 20.031-7.388 22.6-40.426 20.431-60.423-2.17-19.996-21.698-43.464-26.084-55.204-4.385-11.74-7.388-17.815-7.388-17.815s-11.306 15.645-18.272 19.117l-.023 1.747Z"/><path stroke="#737373" stroke-linecap="round" stroke-linejoin="round" d="M551.882 255.317a109.186 109.186 0 0 1-7.297 55.958c-12.174 29.212-2.844 60.457 11.363 66.944 14.206 6.487 27.99 4.066 34.888-4.865"/><path stroke="#737373" stroke-linecap="round" stroke-linejoin="round" d="M557.158 248.83s13.796 32.456 8.12 56.803c-5.676 24.348-3.243 55.239 13.795 61.269 17.039 6.03 26.78-6.03 26.78-6.03"/><path stroke="#737373" stroke-linecap="round" stroke-linejoin="round" d="M573.797 269.923s11.762 44.629 11.762 67.755c0 23.125 14.207 19.482 17.861 8.12"/><path stroke="#263238" stroke-linecap="round" stroke-linejoin="round" d="M544.551 270.871s0 13.91-10.427 36.076c-10.426 22.166-10.872 44.332-3.917 60.846 6.955 16.513 25.649 23.045 45.68 15.656 20.031-7.388 22.6-40.426 20.431-60.423-2.17-19.996-21.698-43.464-26.084-55.204-4.385-11.74-7.388-17.815-7.388-17.815s-11.306 15.645-18.272 19.117l-.023 1.747Z"/><path fill="#263238" stroke="#263238" stroke-linecap="round" stroke-linejoin="round" d="m598.191 393.907-74.147-2.991a5.928 5.928 0 0 0-6.161 5.683l-4.13 102.377a5.927 5.927 0 0 0 5.684 6.161l74.147 2.991a5.927 5.927 0 0 0 6.161-5.683l4.129-102.377a5.926 5.926 0 0 0-5.683-6.161Z"/><path fill="#fff" d="M635.968 435.319s-37.96-11.808-44.435-13.795c-6.475-1.987-43.773 25.866-45.258 29.84-1.484 3.974 3.975 3.986 3.975 3.986s-2.284 3.974 1.142 5.961a20.448 20.448 0 0 0 3.426 1.861s-1.987 4.477 1.987 5.973c3.974 1.496 9.455-2.489 9.455-2.489l8.954-6.464s-10.758 13.167-8.462 15.919c3.163 3.769 5.184-.274 5.184-.274l12.368-14.652 12.425-5.972s9.947 5.972 25.866 6.463c15.92.491 19.414-6.463 19.414-6.463"/><path stroke="#263238" stroke-linecap="round" stroke-linejoin="round" d="M635.968 435.319s-37.96-11.808-44.435-13.795c-6.475-1.987-43.773 25.866-45.258 29.84-1.484 3.974 3.975 3.986 3.975 3.986s-2.284 3.974 1.142 5.961a20.448 20.448 0 0 0 3.426 1.861s-1.987 4.477 1.987 5.973c3.974 1.496 9.455-2.489 9.455-2.489l8.954-6.464s-10.758 13.167-8.462 15.919c3.163 3.769 5.184-.274 5.184-.274l12.368-14.652 12.425-5.972s9.947 5.972 25.866 6.463c15.92.491 19.414-6.463 19.414-6.463"/><path stroke="#263238" stroke-linecap="round" stroke-linejoin="round" d="M554.897 463.172s13.944-9.57 17.415-13.03c3.472-3.46 14.721-10.689 18.193-10.689M575.293 460.226s6.852-7.743 9.433-8.896a798.711 798.711 0 0 0 6.35-2.889M550.25 455.35s19.414-13.704 26.06-17.736a93.992 93.992 0 0 1 12.414-6.361"/><g fill="#000" clip-path="url(#a)"><path d="M61.36 187.502a18.724 18.724 0 0 0 10.091-6.553 18.76 18.76 0 0 0 3.957-14.039 18.764 18.764 0 0 0-7.224-12.677c-3.913-3.017-8.792-4.358-13.737-3.777-4.945.582-9.38 3.019-12.486 6.861a18.715 18.715 0 0 0-4.202 11.49c-.138 6.856-2.5 13.512-6.652 18.743l-4.543 5.723a5.885 5.885 0 0 0 .95 8.259l4.282 3.399a5.885 5.885 0 0 0 8.259-.949l4.543-5.723c4.198-5.289 9.981-9.019 16.761-10.757ZM40.18 168.856a16.317 16.317 0 0 1 3.663-10.016c5.58-6.899 15.835-8.105 22.86-2.688 3.524 2.72 5.76 6.641 6.299 11.052a16.355 16.355 0 0 1-3.45 12.239 16.324 16.324 0 0 1-8.795 5.712c-7.145 1.832-13.286 5.71-17.791 11.227l-9.682-7.685c4.305-5.587 6.751-12.614 6.896-19.841Zm-11.21 25.28.61-.768 8.815 8.807-.239.301a3.471 3.471 0 0 1-.41.429l-8.775-8.769Zm2.127-2.678.683-.861 9.696 7.696-1.565 1.972-8.814-8.807Zm-2.079 8.176a3.457 3.457 0 0 1-1.257-3.282l7.425 7.42a3.44 3.44 0 0 1-1.885-.738l-4.282-3.4Z"/><path d="M46.136 163.181c.32-.555.69-1.093 1.1-1.599a1.21 1.21 0 1 0-1.885-1.523 14.76 14.76 0 0 0-1.313 1.913 1.212 1.212 0 1 0 2.099 1.209ZM40.28 182.025a1.21 1.21 0 0 0 1.89-.53 38.43 38.43 0 0 0 2.371-12.552c.015-.71.09-1.418.225-2.106a1.212 1.212 0 1 0-2.377-.466 14.664 14.664 0 0 0-.27 2.524 36.016 36.016 0 0 1-2.221 11.762 1.212 1.212 0 0 0 .383 1.368ZM64.042 180.363a1.211 1.211 0 0 0-1.64-.493 12.15 12.15 0 0 1-2.727 1.061 1.211 1.211 0 1 0 .601 2.347 14.576 14.576 0 0 0 3.272-1.274c.59-.317.81-1.051.494-1.641ZM64.182 159.715c5.23 4.152 6.108 11.786 1.956 17.017-.236.297-.487.586-.747.859a1.21 1.21 0 1 0 1.751 1.673c.311-.326.612-.671.894-1.026 4.983-6.277 3.93-15.438-2.348-20.421a1.211 1.211 0 0 0-1.506 1.898ZM69.698 152.765a1.211 1.211 0 0 0 1.702-.196l4.217-5.313a1.212 1.212 0 0 0-1.897-1.506l-4.218 5.313a1.211 1.211 0 0 0 .196 1.702ZM58.612 147.021a1.21 1.21 0 0 0 1.02 1.376 1.212 1.212 0 0 0 1.376-1.021l.996-6.707a1.211 1.211 0 1 0-2.397-.356l-.995 6.708ZM68.374 196.072l-2.492-6.307a1.211 1.211 0 1 0-2.253.891l2.492 6.306a1.211 1.211 0 0 0 2.253-.89ZM44.666 142.662l2.492 6.307a1.211 1.211 0 1 0 2.253-.891l-2.492-6.306a1.211 1.211 0 0 0-2.253.89ZM80.137 186.567l-5.313-4.217a1.211 1.211 0 1 0-1.506 1.897l5.313 4.217a1.211 1.211 0 1 0 1.506-1.897ZM39.917 156.189a1.212 1.212 0 0 0-.195-1.702l-5.313-4.218a1.211 1.211 0 0 0-1.506 1.898l5.313 4.217a1.212 1.212 0 0 0 1.701-.195ZM77.936 173.607c.161.127.357.216.575.248l6.707.996a1.212 1.212 0 0 0 .356-2.396l-6.707-.996a1.211 1.211 0 0 0-.93 2.148ZM34.53 164.879l-6.708-.996a1.212 1.212 0 0 0-.356 2.396l6.708.996a1.211 1.211 0 1 0 .355-2.396ZM76.237 161.577a1.211 1.211 0 0 0 1.572.681l6.306-2.491a1.212 1.212 0 0 0-.89-2.254l-6.307 2.492c-.622.246-.927.95-.681 1.572Z"/></g><defs><clipPath id="a"><path fill="#fff" d="m46.586 122.666 57.67 45.777-45.776 57.67L.81 180.336z"/></clipPath></defs></svg>